<?xml version="1.0" encoding="iso-8859-1"?>
<!-- Generator: Adobe Illustrator 19.0.0, SVG Export Plug-In . SVG Version: 6.00 Build 0)  -->
<svg version="1.1" id="Capa_1" xmlns="http://www.w3.org/2000/svg" xmlns:xlink="http://www.w3.org/1999/xlink" x="0px" y="0px"
	 viewBox="0 0 512 512" style="enable-background:new 0 0 512 512;" xml:space="preserve">
<polygon style="fill:#D1E8FF;" points="512,127.571 235.984,107.555 256,448.215 512,448.215 "/>
<polygon style="fill:#F5F5FF;" points="0,127.571 0,448.215 256,448.215 256,107.555 "/>
<polygon style="fill:#6283A3;" points="512,0 256,0 235.984,63.785 256,127.571 512,127.571 "/>
<rect style="fill:#9ABADB;" width="256" height="127.57"/>
<rect x="47.839" y="48.786" style="fill:#FF0099;" width="31.893" height="30"/>
<rect x="111.62" y="48.786" style="fill:#FFED94;" width="31.893" height="30"/>
<rect x="175.41" y="48.786" style="fill:#0093C4;" width="31.893" height="30"/>
<path style="fill:#FFCD00;" d="M342.718,192.386H256l-20.016,110.119L256,512l0,0c85.164-32.062,141.549-113.539,141.549-204.538
	v-60.245C370.547,240.631,349.303,219.387,342.718,192.386z"/>
<path style="fill:#FFED94;" d="M169.282,192.386c-6.585,27.001-27.829,48.246-54.831,54.831v60.245
	c0,90.999,56.385,172.476,141.549,204.538l0,0V192.386H169.282z"/>
<path style="fill:#FF0099;" d="M322.056,222.386H256l-20.016,94.116L256,479.58c31.477-14.052,58.297-36.288,78.042-64.819
	c21.921-31.676,33.507-68.778,33.507-107.299v-39.583C347.948,257.889,332.046,241.987,322.056,222.386z"/>
<path style="fill:#FF68A5;" d="M189.944,222.386c-9.99,19.602-25.893,35.503-45.493,45.493v39.583
	c0,38.521,11.586,75.623,33.507,107.299c19.745,28.531,46.565,50.768,78.042,64.819V222.386H189.944z"/>
<g>
</g>
<g>
</g>
<g>
</g>
<g>
</g>
<g>
</g>
<g>
</g>
<g>
</g>
<g>
</g>
<g>
</g>
<g>
</g>
<g>
</g>
<g>
</g>
<g>
</g>
<g>
</g>
<g>
</g>
</svg>
