<?xml version="1.0" encoding="iso-8859-1"?>
<!-- Generator: Adobe Illustrator 19.0.0, SVG Export Plug-In . SVG Version: 6.00 Build 0)  -->
<svg version="1.1" id="Capa_1" xmlns="http://www.w3.org/2000/svg" xmlns:xlink="http://www.w3.org/1999/xlink" x="0px" y="0px"
	 viewBox="0 0 512 512" style="enable-background:new 0 0 512 512;" xml:space="preserve">
<path style="fill:#FF0099;" d="M395.204,0H255.999l-20.055,491.945l59.009,2.657c114.685-59.746,188.27-178.164,188.27-309.875
	V88.018C439.879,77.447,405.777,43.345,395.204,0z"/>
<path style="fill:#FF68A5;" d="M116.794,0c-10.571,43.345-44.673,77.447-88.018,88.018v96.709
	c0,131.71,73.584,250.126,188.267,309.873l38.956-2.655V0H116.794z"/>
<path style="fill:#D1E8FF;" d="M289.622,107.608v107.764l-33.622,21.306l-20.055,45.87L255.999,512l0,0
	c13.446-5.062,26.438-10.892,38.948-17.41V298.261l58.592-37.13V128.914L289.622,107.608z"/>
<path style="fill:#F5F5FF;" d="M222.378,215.372V107.608l-63.918,21.306V261.13l58.592,37.13v196.33
	c12.51,6.517,25.502,12.348,38.948,17.41l0,0V236.678L222.378,215.372z"/>
<g>
</g>
<g>
</g>
<g>
</g>
<g>
</g>
<g>
</g>
<g>
</g>
<g>
</g>
<g>
</g>
<g>
</g>
<g>
</g>
<g>
</g>
<g>
</g>
<g>
</g>
<g>
</g>
<g>
</g>
</svg>
