<?xml version="1.0" encoding="iso-8859-1"?>
<!-- Generator: Adobe Illustrator 19.0.0, SVG Export Plug-In . SVG Version: 6.00 Build 0)  -->
<svg version="1.1" id="Capa_1" xmlns="http://www.w3.org/2000/svg" xmlns:xlink="http://www.w3.org/1999/xlink" x="0px" y="0px"
	 viewBox="0 0 512 512" style="enable-background:new 0 0 512 512;" xml:space="preserve">
<path style="fill:#00C7FF;" d="M393.912,0H256l-20.016,205.668L256,512l0,0c135.44-51.469,225.112-181.195,225.112-327.273V88.018
	C438.17,77.447,404.384,43.345,393.912,0z"/>
<path style="fill:#04F6FF;" d="M118.088,0c-10.473,43.345-44.258,77.447-87.2,88.018v96.709C30.888,330.805,120.56,460.531,256,512
	l0,0V0H118.088z"/>
<path style="fill:#D1E8FF;" d="M399.541,245.387v-30h-33.867c-2.63-19.325-10.264-37.077-21.552-51.909l23.984-23.984
	l-21.213-21.213l-23.984,23.984c-14.832-11.289-32.584-18.923-51.909-21.552V86.846h-15l-10.008,48.415L256,149.692l0,0
	c44.494,0,80.693,36.199,80.693,80.693c0,44.495-36.199,80.694-80.693,80.694l0,0l-10.008,12.847L256,373.928h15V340.06
	c19.325-2.63,37.077-10.264,51.909-21.552l23.984,23.984l21.213-21.213l-23.984-23.984c11.288-14.831,18.922-32.584,21.552-51.908
	L399.541,245.387L399.541,245.387z"/>
<path style="fill:#F5F5FF;" d="M175.306,230.386c0-44.494,36.199-80.693,80.694-80.693V86.846h-15v33.867
	c-19.324,2.63-37.077,10.264-51.908,21.552l-23.984-23.984l-21.213,21.213l23.984,23.984
	c-11.289,14.832-18.923,32.584-21.552,51.909H112.46v30h33.867c2.63,19.324,10.264,37.077,21.552,51.908l-23.984,23.984
	l21.213,21.213l23.984-23.984c14.831,11.288,32.584,18.922,51.908,21.552v33.868h15V311.08
	C211.505,311.08,175.306,274.881,175.306,230.386z"/>
<path style="fill:#D1E8FF;" d="M302.916,230.386c0-25.869-21.046-46.915-46.915-46.915l0,0l-10.008,17.123L256,213.471l0,0
	c9.327,0,16.915,7.588,16.915,16.915s-7.588,16.915-16.915,16.915l0,0l-10.008,13.293L256,277.301l0,0
	C281.87,277.301,302.916,256.255,302.916,230.386z"/>
<path style="fill:#F5F5FF;" d="M239.085,230.386c0-9.327,7.588-16.915,16.915-16.915v-30c-25.869,0-46.915,21.046-46.915,46.915
	S230.131,277.3,256,277.301v-30C246.673,247.3,239.085,239.713,239.085,230.386z"/>
<g>
</g>
<g>
</g>
<g>
</g>
<g>
</g>
<g>
</g>
<g>
</g>
<g>
</g>
<g>
</g>
<g>
</g>
<g>
</g>
<g>
</g>
<g>
</g>
<g>
</g>
<g>
</g>
<g>
</g>
</svg>
