<?xml version="1.0" encoding="iso-8859-1"?>
<!-- Generator: Adobe Illustrator 19.0.0, SVG Export Plug-In . SVG Version: 6.00 Build 0)  -->
<svg version="1.1" id="Capa_1" xmlns="http://www.w3.org/2000/svg" xmlns:xlink="http://www.w3.org/1999/xlink" x="0px" y="0px"
	 viewBox="0 0 512 512" style="enable-background:new 0 0 512 512;" xml:space="preserve">
<polygon style="fill:#9ABADB;" points="332.663,473.644 332.663,413.596 235.984,393.58 256,473.644 "/>
<g>
	<polygon style="fill:#D1E8FF;" points="179.337,473.644 256,473.644 256,393.58 179.337,413.596 	"/>
	<polygon style="fill:#D1E8FF;" points="512,323.524 235.984,303.508 256,413.596 512,413.596 	"/>
</g>
<polygon style="fill:#F5F5FF;" points="0,323.524 0,413.596 256,413.596 256,303.508 "/>
<polygon style="fill:#D1E8FF;" points="377.699,458.644 256,458.644 245.992,473.644 256,488.644 377.699,488.644 "/>
<rect x="134.3" y="458.64" style="fill:#F5F5FF;" width="121.7" height="30"/>
<polygon style="fill:#294B6E;" points="512,23.356 256,23.356 235.984,173.44 256,323.524 512,323.524 "/>
<rect y="23.356" style="fill:#6283A3;" width="256" height="300.17"/>
<path style="fill:#FFCD00;" d="M329.296,83.404H256l-20.016,96.765L256,353.548l0,0c71.982-27.1,119.64-95.966,119.64-172.88v-50.92
	C352.818,124.182,334.862,106.226,329.296,83.404z"/>
<path style="fill:#FFED94;" d="M182.704,83.404c-5.566,22.823-23.522,40.778-46.344,46.344v50.92
	c0,76.914,47.658,145.78,119.64,172.88l0,0V83.404H182.704z"/>
<path style="fill:#FF0099;" d="M333.877,142.357c-6.46-4.946-12.244-10.729-17.191-17.191l-9.006-11.762H256l-20.016,80.505
	L256,322.233l15.628-9.538c18.473-11.273,34.123-26.07,46.516-43.979c17.988-25.992,27.496-56.439,27.496-88.049v-29.305
	L333.877,142.357z"/>
<path style="fill:#FF68A5;" d="M204.32,113.404l-9.006,11.762c-4.947,6.462-10.731,12.245-17.191,17.191l-11.763,9.006v29.305
	c0,31.609,9.508,62.057,27.496,88.048c12.393,17.909,28.043,32.706,46.516,43.979L256,322.233V113.404H204.32z"/>
<g>
</g>
<g>
</g>
<g>
</g>
<g>
</g>
<g>
</g>
<g>
</g>
<g>
</g>
<g>
</g>
<g>
</g>
<g>
</g>
<g>
</g>
<g>
</g>
<g>
</g>
<g>
</g>
<g>
</g>
</svg>
