<?xml version="1.0" encoding="iso-8859-1"?>
<!-- Generator: Adobe Illustrator 19.0.0, SVG Export Plug-In . SVG Version: 6.00 Build 0)  -->
<svg version="1.1" id="Capa_1" xmlns="http://www.w3.org/2000/svg" xmlns:xlink="http://www.w3.org/1999/xlink" x="0px" y="0px"
	 viewBox="0 0 512 512" style="enable-background:new 0 0 512 512;" xml:space="preserve">
<polygon style="fill:#FFED94;" points="459.711,63.785 255.999,63.785 235.983,287.893 255.999,512 459.711,512 "/>
<rect x="52.289" y="63.785" style="fill:#FFF8D4;" width="203.71" height="448.21"/>
<g>
	<rect x="101.069" y="176.36" style="fill:#6283A3;" width="93.78" height="93.78"/>
	<rect x="101.069" y="303.93" style="fill:#6283A3;" width="93.78" height="93.79"/>
</g>
<path style="fill:#9ABADB;" d="M382.106,31.893h-81.001C294.537,13.314,276.827,0,255.999,0l-20.016,53.669l20.016,42.009h126.107
	V31.893z"/>
<path style="fill:#D1E8FF;" d="M210.893,31.893h-81v63.786h126.106V0C235.171,0,217.461,13.314,210.893,31.893z"/>
<g>
	<polygon style="fill:#294B6E;" points="411.872,176.356 255.999,176.356 245.991,191.356 255.999,206.356 411.872,206.356 	"/>
	<polygon style="fill:#294B6E;" points="411.872,240.142 255.999,240.142 245.991,255.142 255.999,270.142 411.872,270.142 	"/>
	<polygon style="fill:#294B6E;" points="411.872,303.927 255.999,303.927 245.991,318.927 255.999,333.927 411.872,333.927 	"/>
	<polygon style="fill:#294B6E;" points="411.872,367.712 255.999,367.712 245.991,382.712 255.999,397.712 411.872,397.712 	"/>
</g>
<g>
	<rect x="227.699" y="176.36" style="fill:#6283A3;" width="28.3" height="30"/>
	<rect x="227.699" y="240.14" style="fill:#6283A3;" width="28.3" height="30"/>
	<rect x="227.699" y="303.93" style="fill:#6283A3;" width="28.3" height="30"/>
	<rect x="227.699" y="367.71" style="fill:#6283A3;" width="28.3" height="30"/>
</g>
<g>
</g>
<g>
</g>
<g>
</g>
<g>
</g>
<g>
</g>
<g>
</g>
<g>
</g>
<g>
</g>
<g>
</g>
<g>
</g>
<g>
</g>
<g>
</g>
<g>
</g>
<g>
</g>
<g>
</g>
</svg>
