<?xml version="1.0" encoding="iso-8859-1"?>
<!-- Generator: Adobe Illustrator 19.0.0, SVG Export Plug-In . SVG Version: 6.00 Build 0)  -->
<svg version="1.1" id="Capa_1" xmlns="http://www.w3.org/2000/svg" xmlns:xlink="http://www.w3.org/1999/xlink" x="0px" y="0px"
	 viewBox="0 0 512.004 512.004" style="enable-background:new 0 0 512.004 512.004;" xml:space="preserve">
<polygon style="fill:#6283A3;" points="480.249,81.861 399.948,162.163 359.017,152.986 315.529,166.333 29.025,482.977 58.048,512 
	342.151,227.898 413.479,243.89 512.002,145.366 "/>
<g>
	<polygon style="fill:#9ABADB;" points="349.84,112.055 430.142,31.753 366.636,0 268.113,98.523 284.104,169.852 0.002,453.955 
		29.025,482.977 359.017,152.986 	"/>
	<polygon style="fill:#9ABADB;" points="16.98,20.836 150.636,187.825 317.625,321.48 325.276,280.496 63.135,18.355 	"/>
</g>
<polygon style="fill:#D1E8FF;" points="14.499,66.99 276.64,329.131 317.625,321.48 16.98,20.836 "/>
<polygon style="fill:#00C7FF;" points="344.717,261.054 300.957,304.814 355.469,392.659 464.385,468.241 508.144,424.481 "/>
<rect x="245.225" y="377.472" transform="matrix(0.7071 0.7071 -0.7071 0.7071 394.4629 -135.4932)" style="fill:#04F6FF;" width="231.123" height="61.88"/>
<g>
</g>
<g>
</g>
<g>
</g>
<g>
</g>
<g>
</g>
<g>
</g>
<g>
</g>
<g>
</g>
<g>
</g>
<g>
</g>
<g>
</g>
<g>
</g>
<g>
</g>
<g>
</g>
<g>
</g>
</svg>
