<?xml version="1.0" encoding="iso-8859-1"?>
<!-- Generator: Adobe Illustrator 19.0.0, SVG Export Plug-In . SVG Version: 6.00 Build 0)  -->
<svg version="1.1" id="Capa_1" xmlns="http://www.w3.org/2000/svg" xmlns:xlink="http://www.w3.org/1999/xlink" x="0px" y="0px"
	 viewBox="0 0 512 512" style="enable-background:new 0 0 512 512;" xml:space="preserve">
<polygon style="fill:#9ABADB;" points="459.358,0 439.342,180.527 459.358,361.055 488.562,341.039 488.562,26.225 "/>
<polygon style="fill:#D1E8FF;" points="430.153,26.225 430.153,341.039 459.358,361.055 459.358,0 "/>
<polygon style="fill:#00C7FF;" points="511.91,341.039 459.358,341.039 439.342,426.519 459.358,512 511.91,512 "/>
<rect x="406.81" y="341.04" style="fill:#04F6FF;" width="52.55" height="170.96"/>
<path style="fill:#0093C4;" d="M184.833,440.743c101.867,0,184.743-82.876,184.743-184.743L242.39,231.769L184.833,440.743z"/>
<path style="fill:#00C7FF;" d="M127.276,231.769L0.09,256c0,101.867,82.876,184.743,184.743,184.743L127.276,231.769z"/>
<path style="fill:#04F6FF;" d="M184.83,71.257C82.964,71.259,0.09,154.134,0.09,256h102.955L184.83,71.257z"/>
<g>
	<path style="fill:#00C7FF;" d="M160.603,231.769l24.231,208.974c38.608,0,81.788-82.876,81.788-184.743L160.603,231.769z"/>
	<path style="fill:#00C7FF;" d="M184.833,71.257L266.621,256h102.955C369.576,154.133,286.7,71.257,184.833,71.257z"/>
</g>
<path style="fill:#04F6FF;" d="M266.621,256c0-101.867-43.18-184.743-81.788-184.743l-24.231,106.459L184.833,256H266.621z"/>
<path style="fill:#0093C4;" d="M103.045,256c0,101.867,43.18,184.743,81.788,184.743V256l-39.141-24.231L103.045,256z"/>
<path style="fill:#00C7FF;" d="M184.833,71.257c-0.001,0-0.002,0-0.004,0c-38.607,0.005-81.784,82.879-81.784,184.743h81.788
	L184.833,71.257L184.833,71.257z"/>
<g>
</g>
<g>
</g>
<g>
</g>
<g>
</g>
<g>
</g>
<g>
</g>
<g>
</g>
<g>
</g>
<g>
</g>
<g>
</g>
<g>
</g>
<g>
</g>
<g>
</g>
<g>
</g>
<g>
</g>
</svg>
