<?xml version="1.0" encoding="iso-8859-1"?>
<!-- Generator: Adobe Illustrator 19.0.0, SVG Export Plug-In . SVG Version: 6.00 Build 0)  -->
<svg version="1.1" id="Capa_1" xmlns="http://www.w3.org/2000/svg" xmlns:xlink="http://www.w3.org/1999/xlink" x="0px" y="0px"
	 viewBox="0 0 512 512" style="enable-background:new 0 0 512 512;" xml:space="preserve">
<polygon style="fill:#D1E8FF;" points="512,159.464 235.984,139.447 256,480.107 512,480.107 "/>
<polygon style="fill:#F5F5FF;" points="0,159.464 0,480.107 256,480.107 256,139.447 "/>
<polygon style="fill:#6283A3;" points="512,31.893 256,31.893 235.984,95.678 256,159.464 512,159.464 "/>
<rect y="31.893" style="fill:#9ABADB;" width="256" height="127.57"/>
<rect x="47.839" y="80.68" style="fill:#FF0099;" width="31.893" height="30"/>
<rect x="111.62" y="80.68" style="fill:#FFED94;" width="31.893" height="30"/>
<rect x="175.41" y="80.68" style="fill:#0093C4;" width="31.893" height="30"/>
<polygon style="fill:#FF8E00;" points="436.952,276.016 256,276.016 235.984,316.048 256,356.08 436.952,356.08 "/>
<polygon style="fill:#FFCD00;" points="167.667,276.016 147.651,316.048 167.667,356.08 256,356.08 256,276.016 "/>
<rect x="75.05" y="276.02" style="fill:#FF68A5;" width="92.62" height="80.06"/>
<g>
</g>
<g>
</g>
<g>
</g>
<g>
</g>
<g>
</g>
<g>
</g>
<g>
</g>
<g>
</g>
<g>
</g>
<g>
</g>
<g>
</g>
<g>
</g>
<g>
</g>
<g>
</g>
<g>
</g>
</svg>
