<?xml version="1.0" encoding="iso-8859-1"?>
<!-- Generator: Adobe Illustrator 19.0.0, SVG Export Plug-In . SVG Version: 6.00 Build 0)  -->
<svg version="1.1" id="Capa_1" xmlns="http://www.w3.org/2000/svg" xmlns:xlink="http://www.w3.org/1999/xlink" x="0px" y="0px"
	 viewBox="0 0 512 512" style="enable-background:new 0 0 512 512;" xml:space="preserve">
<path style="fill:#D1E8FF;" d="M256,512c18.226,0,36.001-1.919,53.149-5.54l20.016-65.96l-20.016-58.2
	c-16.352,6.907-34.312,10.729-53.149,10.729c-0.002,0-0.004,0-0.006,0l-20.016,51.966L255.994,512C255.996,512,255.998,512,256,512z
	"/>
<path style="fill:#FF0099;" d="M309.149,382.3v124.16c98.725-20.847,176.458-98.583,197.309-197.304L442.5,289.14l-60.225,20.016
	C368.382,342.034,342.029,368.411,309.149,382.3z"/>
<path style="fill:#D1E8FF;" d="M506.459,202.847l-59.321-20.016l-64.862,20.016c6.911,16.355,10.753,34.311,10.753,53.153
	c0,18.843-3.842,36.8-10.754,53.156h124.183C510.08,292.006,512,274.229,512,256C512,237.773,510.081,219.996,506.459,202.847z"/>
<path style="fill:#FF0099;" d="M309.149,5.54L289.133,58l20.016,71.701c32.881,13.889,59.234,40.268,73.127,73.147h124.182
	C485.608,104.125,407.875,26.387,309.149,5.54z"/>
<path style="fill:#D1E8FF;" d="M309.149,129.7V5.54C292.001,1.919,274.226,0,256,0c-0.002,0-0.004,0-0.006,0v118.971
	c0.002,0,0.004,0,0.006,0C274.837,118.971,292.797,122.793,309.149,129.7z"/>
<path style="fill:#F5F5FF;" d="M202.84,506.458c17.149,3.622,34.927,5.542,53.155,5.542V393.029
	c-18.839-0.001-36.802-3.824-53.155-10.734l-20.016,60.706L202.84,506.458z"/>
<path style="fill:#FF68A5;" d="M202.84,506.458V382.295c-32.875-13.89-59.223-40.265-73.115-73.139L72,289.14L5.542,309.156
	C26.393,407.874,104.12,485.607,202.84,506.458z"/>
<g>
	<path style="fill:#F5F5FF;" d="M129.724,202.847L72.5,182.831L5.541,202.847C1.919,219.996,0,237.773,0,256
		c0,18.229,1.92,36.006,5.542,53.156h124.183c-6.911-16.356-10.754-34.313-10.754-53.156
		C118.971,237.158,122.813,219.202,129.724,202.847z"/>
	<path style="fill:#F5F5FF;" d="M202.84,5.542L182.824,64.85l20.016,64.855c16.353-6.909,34.315-10.733,53.155-10.734V0
		C237.767,0,219.989,1.92,202.84,5.542z"/>
</g>
<path style="fill:#FF68A5;" d="M202.84,129.705V5.542C104.119,26.393,26.391,104.128,5.541,202.847h124.182
	C143.615,169.972,169.964,143.595,202.84,129.705z"/>
<g>
</g>
<g>
</g>
<g>
</g>
<g>
</g>
<g>
</g>
<g>
</g>
<g>
</g>
<g>
</g>
<g>
</g>
<g>
</g>
<g>
</g>
<g>
</g>
<g>
</g>
<g>
</g>
<g>
</g>
</svg>
