<?xml version="1.0" encoding="iso-8859-1"?>
<!-- Generator: Adobe Illustrator 19.0.0, SVG Export Plug-In . SVG Version: 6.00 Build 0)  -->
<svg version="1.1" id="Capa_1" xmlns="http://www.w3.org/2000/svg" xmlns:xlink="http://www.w3.org/1999/xlink" x="0px" y="0px"
	 viewBox="0 0 512 512" style="enable-background:new 0 0 512 512;" xml:space="preserve">
<polygon style="fill:#D1E8FF;" points="512,159.464 235.984,139.447 256,480.107 512,480.107 "/>
<polygon style="fill:#F5F5FF;" points="0,159.464 0,480.107 256,480.107 256,139.447 "/>
<polygon style="fill:#6283A3;" points="512,31.893 256,31.893 235.984,95.678 256,159.464 512,159.464 "/>
<rect y="31.893" style="fill:#9ABADB;" width="256" height="127.57"/>
<rect x="47.839" y="80.68" style="fill:#FF0099;" width="31.893" height="30"/>
<rect x="111.62" y="80.68" style="fill:#FFED94;" width="31.893" height="30"/>
<rect x="175.41" y="80.68" style="fill:#0093C4;" width="31.893" height="30"/>
<g>
	<rect x="49.618" y="208.2" style="fill:#6283A3;" width="115.05" height="93.78"/>
	<rect x="49.618" y="335.77" style="fill:#6283A3;" width="115.05" height="93.79"/>
</g>
<g>
	<polygon style="fill:#294B6E;" points="447.382,208.198 256,208.198 245.992,223.198 256,238.198 447.382,238.198 	"/>
	<polygon style="fill:#294B6E;" points="447.382,271.983 256,271.983 245.992,286.983 256,301.983 447.382,301.983 	"/>
	<polygon style="fill:#294B6E;" points="447.382,335.769 256,335.769 245.992,350.769 256,365.769 447.382,365.769 	"/>
	<polygon style="fill:#294B6E;" points="447.382,399.554 256,399.554 245.992,414.554 256,429.554 447.382,429.554 	"/>
</g>
<g>
	<rect x="197.56" y="271.98" style="fill:#6283A3;" width="58.44" height="30"/>
	<rect x="197.56" y="335.77" style="fill:#6283A3;" width="58.44" height="30"/>
	<rect x="197.56" y="399.56" style="fill:#6283A3;" width="58.44" height="30"/>
	<rect x="197.56" y="208.2" style="fill:#6283A3;" width="58.44" height="30"/>
</g>
<g>
</g>
<g>
</g>
<g>
</g>
<g>
</g>
<g>
</g>
<g>
</g>
<g>
</g>
<g>
</g>
<g>
</g>
<g>
</g>
<g>
</g>
<g>
</g>
<g>
</g>
<g>
</g>
<g>
</g>
</svg>
