<?xml version="1.0" encoding="iso-8859-1"?>
<!-- Generator: Adobe Illustrator 19.0.0, SVG Export Plug-In . SVG Version: 6.00 Build 0)  -->
<svg version="1.1" id="Capa_1" xmlns="http://www.w3.org/2000/svg" xmlns:xlink="http://www.w3.org/1999/xlink" x="0px" y="0px"
	 viewBox="0 0 512 512" style="enable-background:new 0 0 512 512;" xml:space="preserve">
<polygon style="fill:#9ABADB;" points="512,16.881 256,16.881 235.984,144.452 256,272.022 512,272.022 "/>
<rect y="16.881" style="fill:#D1E8FF;" width="256" height="255.14"/>
<polygon style="fill:#6283A3;" points="384.258,398.583 405.345,365.307 512,365.307 490.913,302.046 360.057,302.046 
	323.309,360.035 256.091,360.035 236.075,398.583 256.091,437.13 323.309,437.13 360.057,495.119 490.913,495.119 512,431.859 
	405.345,431.859 "/>
<g>
	<rect x="0.181" y="360.04" style="fill:#9ABADB;" width="255.91" height="77.09"/>
	<rect x="48.697" y="65.67" style="fill:#9ABADB;" width="31.893" height="30"/>
	<rect x="112.48" y="65.67" style="fill:#9ABADB;" width="31.894" height="30"/>
	<rect x="176.27" y="65.67" style="fill:#9ABADB;" width="31.893" height="30"/>
</g>
<g>
	<rect x="303.84" y="65.67" style="fill:#6283A3;" width="31.893" height="30"/>
	<rect x="367.62" y="65.67" style="fill:#6283A3;" width="31.894" height="30"/>
	<rect x="431.41" y="65.67" style="fill:#6283A3;" width="31.893" height="30"/>
</g>
<g>
	<rect x="48.697" y="129.45" style="fill:#9ABADB;" width="31.893" height="30"/>
	<rect x="112.48" y="129.45" style="fill:#9ABADB;" width="31.894" height="30"/>
	<rect x="176.27" y="129.45" style="fill:#9ABADB;" width="31.893" height="30"/>
</g>
<g>
	<rect x="303.84" y="129.45" style="fill:#6283A3;" width="31.893" height="30"/>
	<rect x="367.62" y="129.45" style="fill:#6283A3;" width="31.894" height="30"/>
	<rect x="431.41" y="129.45" style="fill:#6283A3;" width="31.893" height="30"/>
</g>
<g>
	<rect x="48.697" y="193.24" style="fill:#9ABADB;" width="31.893" height="30"/>
	<rect x="112.48" y="193.24" style="fill:#9ABADB;" width="31.894" height="30"/>
</g>
<g>
	<rect x="367.62" y="193.24" style="fill:#6283A3;" width="31.894" height="30"/>
	<rect x="431.41" y="193.24" style="fill:#6283A3;" width="31.893" height="30"/>
	<polygon style="fill:#6283A3;" points="271.946,129.451 256,129.451 245.992,144.451 256,159.451 271.946,159.451 	"/>
	<polygon style="fill:#6283A3;" points="335.731,193.237 256,193.237 245.992,208.237 256,223.237 335.731,223.237 	"/>
	<polygon style="fill:#6283A3;" points="271.946,65.666 256,65.666 245.992,80.666 256,95.666 271.946,95.666 	"/>
</g>
<g>
	<rect x="240.05" y="65.67" style="fill:#9ABADB;" width="15.946" height="30"/>
	<rect x="240.05" y="129.45" style="fill:#9ABADB;" width="15.946" height="30"/>
	<rect x="176.27" y="193.24" style="fill:#9ABADB;" width="79.73" height="30"/>
</g>
<g>
</g>
<g>
</g>
<g>
</g>
<g>
</g>
<g>
</g>
<g>
</g>
<g>
</g>
<g>
</g>
<g>
</g>
<g>
</g>
<g>
</g>
<g>
</g>
<g>
</g>
<g>
</g>
<g>
</g>
</svg>
