<?xml version="1.0" encoding="iso-8859-1"?>
<!-- Generator: Adobe Illustrator 19.0.0, SVG Export Plug-In . SVG Version: 6.00 Build 0)  -->
<svg version="1.1" id="Capa_1" xmlns="http://www.w3.org/2000/svg" xmlns:xlink="http://www.w3.org/1999/xlink" x="0px" y="0px"
	 viewBox="0 0 512 512" style="enable-background:new 0 0 512 512;" xml:space="preserve">
<polygon style="fill:#9ABADB;" points="512,414.029 485.775,384.825 256,384.825 235.984,414.029 256,443.233 485.775,443.233 "/>
<polygon style="fill:#D1E8FF;" points="170.961,384.825 150.945,414.029 170.961,443.233 256,443.233 256,384.825 "/>
<rect y="361.475" style="fill:#04F6FF;" width="170.96" height="105.1"/>
<polygon style="fill:#9ABADB;" points="512,45.429 256,45.429 235.984,173 256,300.571 512,300.571 "/>
<rect y="45.425" style="fill:#D1E8FF;" width="256" height="255.14"/>
<g>
	<rect x="48.697" y="94.215" style="fill:#9ABADB;" width="31.893" height="30"/>
	<rect x="112.48" y="94.215" style="fill:#9ABADB;" width="31.894" height="30"/>
	<rect x="176.27" y="94.215" style="fill:#9ABADB;" width="31.893" height="30"/>
</g>
<g>
	<rect x="303.84" y="94.215" style="fill:#6283A3;" width="31.893" height="30"/>
	<rect x="367.62" y="94.215" style="fill:#6283A3;" width="31.894" height="30"/>
	<rect x="431.41" y="94.215" style="fill:#6283A3;" width="31.893" height="30"/>
</g>
<g>
	<rect x="48.697" y="157.995" style="fill:#9ABADB;" width="31.893" height="30"/>
	<rect x="112.48" y="157.995" style="fill:#9ABADB;" width="31.894" height="30"/>
	<rect x="176.27" y="157.995" style="fill:#9ABADB;" width="31.893" height="30"/>
</g>
<g>
	<rect x="303.84" y="157.995" style="fill:#6283A3;" width="31.893" height="30"/>
	<rect x="367.62" y="157.995" style="fill:#6283A3;" width="31.894" height="30"/>
	<rect x="431.41" y="157.995" style="fill:#6283A3;" width="31.893" height="30"/>
</g>
<g>
	<rect x="48.697" y="221.785" style="fill:#9ABADB;" width="31.893" height="30"/>
	<rect x="112.48" y="221.785" style="fill:#9ABADB;" width="31.894" height="30"/>
</g>
<g>
	<rect x="367.62" y="221.785" style="fill:#6283A3;" width="31.894" height="30"/>
	<rect x="431.41" y="221.785" style="fill:#6283A3;" width="31.893" height="30"/>
	<polygon style="fill:#6283A3;" points="271.946,157.999 256,157.999 245.992,172.999 256,187.999 271.946,187.999 	"/>
	<polygon style="fill:#6283A3;" points="335.731,221.785 256,221.785 245.992,236.785 256,251.785 335.731,251.785 	"/>
	<polygon style="fill:#6283A3;" points="271.946,94.214 256,94.214 245.992,109.214 256,124.214 271.946,124.214 	"/>
</g>
<g>
	<rect x="240.05" y="94.215" style="fill:#9ABADB;" width="15.946" height="30"/>
	<rect x="240.05" y="157.995" style="fill:#9ABADB;" width="15.946" height="30"/>
	<rect x="176.27" y="221.785" style="fill:#9ABADB;" width="79.73" height="30"/>
</g>
<g>
</g>
<g>
</g>
<g>
</g>
<g>
</g>
<g>
</g>
<g>
</g>
<g>
</g>
<g>
</g>
<g>
</g>
<g>
</g>
<g>
</g>
<g>
</g>
<g>
</g>
<g>
</g>
<g>
</g>
</svg>
