<?xml version="1.0" encoding="iso-8859-1"?>
<!-- Generator: Adobe Illustrator 19.0.0, SVG Export Plug-In . SVG Version: 6.00 Build 0)  -->
<svg version="1.1" id="Capa_1" xmlns="http://www.w3.org/2000/svg" xmlns:xlink="http://www.w3.org/1999/xlink" x="0px" y="0px"
	 viewBox="0 0 512 512" style="enable-background:new 0 0 512 512;" xml:space="preserve">
<polygon style="fill:#D1E8FF;" points="512,159.464 235.984,139.447 256,480.107 512,480.107 "/>
<polygon style="fill:#F5F5FF;" points="0,159.464 0,480.107 256,480.107 256,139.447 "/>
<polygon style="fill:#6283A3;" points="512,31.893 256,31.893 235.984,95.678 256,159.464 512,159.464 "/>
<rect y="31.893" style="fill:#9ABADB;" width="256" height="127.57"/>
<rect x="47.839" y="80.68" style="fill:#FF0099;" width="31.893" height="30"/>
<rect x="111.62" y="80.68" style="fill:#FFED94;" width="31.893" height="30"/>
<rect x="175.41" y="80.68" style="fill:#0093C4;" width="31.893" height="30"/>
<polygon style="fill:#FF0099;" points="256.026,416.372 298.549,416.372 298.549,319.785 236.01,299.769 "/>
<polygon style="fill:#FF68A5;" points="213.502,319.785 213.502,416.372 256.026,416.372 256.026,299.769 "/>
<polygon style="fill:#FF0099;" points="362.335,286.984 362.335,416.372 447.382,416.372 447.382,286.984 404.858,266.968 "/>
<g>
	<rect x="362.33" y="223.2" style="fill:#FF8E00;" width="85.05" height="63.785"/>
	<polygon style="fill:#FF8E00;" points="256.026,223.198 236.01,271.492 256.026,319.785 298.549,319.785 298.549,223.198 	"/>
</g>
<polygon style="fill:#FF68A5;" points="64.618,416.372 149.665,416.372 149.665,352.587 107.142,332.571 64.618,352.587 "/>
<g>
	<rect x="64.62" y="223.2" style="fill:#FFCD00;" width="85.05" height="129.39"/>
	<rect x="213.5" y="223.2" style="fill:#FFCD00;" width="42.524" height="96.59"/>
</g>
<g>
</g>
<g>
</g>
<g>
</g>
<g>
</g>
<g>
</g>
<g>
</g>
<g>
</g>
<g>
</g>
<g>
</g>
<g>
</g>
<g>
</g>
<g>
</g>
<g>
</g>
<g>
</g>
<g>
</g>
</svg>
