<?xml version="1.0" encoding="iso-8859-1"?>
<!-- Generator: Adobe Illustrator 19.0.0, SVG Export Plug-In . SVG Version: 6.00 Build 0)  -->
<svg version="1.1" id="Capa_1" xmlns="http://www.w3.org/2000/svg" xmlns:xlink="http://www.w3.org/1999/xlink" x="0px" y="0px"
	 viewBox="0 0 512 512" style="enable-background:new 0 0 512 512;" xml:space="preserve">
<path style="fill:#D1E8FF;" d="M512,299.552v-87.104h-44.786c-5.597-27.185-16.339-52.51-31.14-74.93l31.741-31.741l-61.592-61.592
	l-31.741,31.741c-22.42-14.801-47.745-25.542-74.93-31.14V0H256l-20.016,256L256,512h43.552v-44.786
	c27.185-5.597,52.51-16.339,74.93-31.14l31.741,31.741l61.592-61.592l-31.741-31.741c14.801-22.42,25.542-47.745,31.14-74.93
	L512,299.552L512,299.552z"/>
<path style="fill:#F5F5FF;" d="M212.448,0v44.786c-27.185,5.597-52.51,16.339-74.93,31.14l-31.741-31.741l-61.592,61.592
	l31.741,31.741c-14.801,22.42-25.542,47.745-31.14,74.93H0v87.104h44.786c5.598,27.185,16.339,52.51,31.14,74.93l-31.741,31.741
	l61.592,61.592l31.741-31.741c22.42,14.801,47.745,25.543,74.93,31.14V512H256V0H212.448z"/>
<path style="fill:#0093C4;" d="M256,408.609c84.148,0,152.609-68.461,152.609-152.609l-105.063-20.016L256,408.609z"/>
<path style="fill:#00C7FF;" d="M208.454,235.984L103.391,256c0,84.148,68.461,152.609,152.609,152.609L208.454,235.984z"/>
<path style="fill:#04F6FF;" d="M255.997,103.391C171.85,103.393,103.391,171.853,103.391,256h85.047L255.997,103.391z"/>
<g>
	<path style="fill:#00C7FF;" d="M235.984,235.984L256,408.609c31.893,0,67.562-68.461,67.562-152.609L235.984,235.984z"/>
	<path style="fill:#00C7FF;" d="M256,103.391L323.562,256h85.047C408.609,171.852,340.148,103.391,256,103.391z"/>
</g>
<path style="fill:#04F6FF;" d="M323.562,256c0-84.148-35.669-152.609-67.562-152.609l-20.016,87.942L256,256H323.562z"/>
<path style="fill:#0093C4;" d="M188.438,256c0,84.148,35.669,152.609,67.562,152.609V256l-32.333-20.016L188.438,256z"/>
<path style="fill:#00C7FF;" d="M256,103.391c-0.001,0-0.002,0-0.003,0c-31.892,0.004-67.559,68.463-67.559,152.609H256V103.391z"/>
<g>
</g>
<g>
</g>
<g>
</g>
<g>
</g>
<g>
</g>
<g>
</g>
<g>
</g>
<g>
</g>
<g>
</g>
<g>
</g>
<g>
</g>
<g>
</g>
<g>
</g>
<g>
</g>
<g>
</g>
</svg>
