<?xml version="1.0" encoding="iso-8859-1"?>
<!-- Generator: Adobe Illustrator 19.0.0, SVG Export Plug-In . SVG Version: 6.00 Build 0)  -->
<svg version="1.1" id="Capa_1" xmlns="http://www.w3.org/2000/svg" xmlns:xlink="http://www.w3.org/1999/xlink" x="0px" y="0px"
	 viewBox="0 0 512 512" style="enable-background:new 0 0 512 512;" xml:space="preserve">
<polygon style="fill:#9ABADB;" points="380.181,0 360.164,180.527 380.181,361.055 409.385,341.039 409.385,26.225 "/>
<polygon style="fill:#D1E8FF;" points="350.976,26.225 350.976,341.039 380.181,361.055 380.181,0 "/>
<polygon style="fill:#00C7FF;" points="432.733,341.039 380.181,341.039 360.164,426.519 380.181,512 432.733,512 "/>
<rect x="327.63" y="341.04" style="fill:#04F6FF;" width="52.55" height="170.96"/>
<polygon style="fill:#6283A3;" points="209.08,0.181 209.08,106.836 175.804,127.923 155.788,165.667 175.804,512 214.351,512 
	214.351,188.872 272.34,152.124 272.34,21.268 "/>
<polygon style="fill:#9ABADB;" points="142.528,106.836 142.528,0.181 79.267,21.268 79.267,152.124 137.256,188.872 137.256,512 
	175.804,512 175.804,127.923 "/>
<g>
</g>
<g>
</g>
<g>
</g>
<g>
</g>
<g>
</g>
<g>
</g>
<g>
</g>
<g>
</g>
<g>
</g>
<g>
</g>
<g>
</g>
<g>
</g>
<g>
</g>
<g>
</g>
<g>
</g>
</svg>
