<?xml version="1.0" encoding="iso-8859-1"?>
<!-- Generator: Adobe Illustrator 19.0.0, SVG Export Plug-In . SVG Version: 6.00 Build 0)  -->
<svg version="1.1" id="Capa_1" xmlns="http://www.w3.org/2000/svg" xmlns:xlink="http://www.w3.org/1999/xlink" x="0px" y="0px"
	 viewBox="0 0 512 512" style="enable-background:new 0 0 512 512;" xml:space="preserve">
<path style="fill:#D1E8FF;" d="M454.406,214.223c0.027-0.913,0.069-1.822,0.069-2.742c0-50.541-40.971-91.512-91.512-91.512
	c-11.967,0-23.386,2.321-33.863,6.499c-6.738-43.241-34.807-79.402-73.1-97.431l-34.841,177.216L256,330.151h198.026
	c32.018,0,57.974-25.956,57.974-57.974C512,240.288,486.247,214.428,454.406,214.223z"/>
<path style="fill:#F5F5FF;" d="M200.74,16.705c-71.755,0-129.924,58.169-129.924,129.924c0,4.185,0.217,8.317,0.604,12.4
	C30.858,166.046,0,201.381,0,243.945c0,47.61,38.596,86.206,86.206,86.206H256V29.036C239.229,21.14,220.506,16.705,200.74,16.705z"
	/>
<polygon style="fill:#9ABADB;" points="512,442.751 485.775,413.547 256,413.547 235.984,442.751 256,471.955 485.775,471.955 "/>
<polygon style="fill:#D1E8FF;" points="170.961,413.547 150.945,442.751 170.961,471.955 256,471.955 256,413.547 "/>
<rect y="390.194" style="fill:#04F6FF;" width="170.96" height="105.1"/>
<g>
</g>
<g>
</g>
<g>
</g>
<g>
</g>
<g>
</g>
<g>
</g>
<g>
</g>
<g>
</g>
<g>
</g>
<g>
</g>
<g>
</g>
<g>
</g>
<g>
</g>
<g>
</g>
<g>
</g>
</svg>
