<?xml version="1.0" encoding="iso-8859-1"?>
<!-- Generator: Adobe Illustrator 19.0.0, SVG Export Plug-In . SVG Version: 6.00 Build 0)  -->
<svg version="1.1" id="Capa_1" xmlns="http://www.w3.org/2000/svg" xmlns:xlink="http://www.w3.org/1999/xlink" x="0px" y="0px"
	 viewBox="0 0 512 512" style="enable-background:new 0 0 512 512;" xml:space="preserve">
<polygon style="fill:#9ABADB;" points="419.814,0 399.798,180.527 419.814,361.055 449.018,341.039 449.018,26.225 "/>
<polygon style="fill:#D1E8FF;" points="390.61,26.225 390.61,341.039 419.814,361.055 419.814,0 "/>
<polygon style="fill:#00C7FF;" points="472.366,341.039 419.814,341.039 399.798,426.519 419.814,512 472.366,512 "/>
<rect x="367.26" y="341.04" style="fill:#04F6FF;" width="52.55" height="170.96"/>
<polygon style="fill:#6283A3;" points="167.205,47.86 147.189,131.662 294.776,111.646 294.776,47.86 "/>
<polygon style="fill:#9ABADB;" points="167.205,47.86 39.634,47.86 39.634,111.646 167.205,131.662 "/>
<polygon style="fill:#6283A3;" points="294.776,336.207 147.189,316.191 167.205,463.777 294.776,463.777 "/>
<polygon style="fill:#9ABADB;" points="39.634,336.207 39.634,463.777 167.205,463.777 167.205,316.191 "/>
<polygon style="fill:#294B6E;" points="188.466,414.992 188.466,384.992 167.205,384.992 157.197,399.992 167.205,414.992 "/>
<rect x="145.94" y="384.99" style="fill:#6283A3;" width="21.262" height="30"/>
<polygon style="fill:#294B6E;" points="167.205,336.207 294.776,336.207 294.776,111.646 167.205,111.646 147.189,223.926 "/>
<rect x="39.634" y="111.65" style="fill:#6283A3;" width="127.57" height="224.56"/>
<g>
</g>
<g>
</g>
<g>
</g>
<g>
</g>
<g>
</g>
<g>
</g>
<g>
</g>
<g>
</g>
<g>
</g>
<g>
</g>
<g>
</g>
<g>
</g>
<g>
</g>
<g>
</g>
<g>
</g>
</svg>
