<?xml version="1.0" encoding="iso-8859-1"?>
<!-- Generator: Adobe Illustrator 19.0.0, SVG Export Plug-In . SVG Version: 6.00 Build 0)  -->
<svg version="1.1" id="Capa_1" xmlns="http://www.w3.org/2000/svg" xmlns:xlink="http://www.w3.org/1999/xlink" x="0px" y="0px"
	 viewBox="0 0 512 512" style="enable-background:new 0 0 512 512;" xml:space="preserve">
<polygon style="fill:#6283A3;" points="127.571,47.77 107.555,131.571 255.142,111.555 255.142,47.77 "/>
<polygon style="fill:#9ABADB;" points="127.571,47.77 0,47.77 0,111.555 127.571,131.571 "/>
<polygon style="fill:#6283A3;" points="448.74,0.09 448.74,106.746 415.464,127.833 395.448,165.576 415.464,511.91 454.011,511.91 
	454.011,188.782 512,152.034 512,21.177 "/>
<polygon style="fill:#9ABADB;" points="382.188,106.746 382.188,0.09 318.927,21.177 318.927,152.034 376.916,188.782 
	376.916,511.91 415.464,511.91 415.464,127.833 "/>
<polygon style="fill:#6283A3;" points="255.142,336.116 107.555,316.1 127.571,463.687 255.142,463.687 "/>
<polygon style="fill:#9ABADB;" points="0,336.116 0,463.687 127.571,463.687 127.571,316.1 "/>
<polygon style="fill:#294B6E;" points="148.833,414.902 148.833,384.902 127.571,384.902 117.563,399.902 127.571,414.902 "/>
<rect x="106.31" y="384.9" style="fill:#6283A3;" width="21.262" height="30"/>
<polygon style="fill:#294B6E;" points="127.571,336.116 255.142,336.116 255.142,111.555 127.571,111.555 107.555,223.836 "/>
<rect y="111.56" style="fill:#6283A3;" width="127.57" height="224.56"/>
<g>
</g>
<g>
</g>
<g>
</g>
<g>
</g>
<g>
</g>
<g>
</g>
<g>
</g>
<g>
</g>
<g>
</g>
<g>
</g>
<g>
</g>
<g>
</g>
<g>
</g>
<g>
</g>
<g>
</g>
</svg>
