<?xml version="1.0" encoding="iso-8859-1"?>
<!-- Generator: Adobe Illustrator 19.0.0, SVG Export Plug-In . SVG Version: 6.00 Build 0)  -->
<svg version="1.1" id="Capa_1" xmlns="http://www.w3.org/2000/svg" xmlns:xlink="http://www.w3.org/1999/xlink" x="0px" y="0px"
	 viewBox="0 0 512 512" style="enable-background:new 0 0 512 512;" xml:space="preserve">
<polygon style="fill:#6283A3;" points="256,512 512,512 512,384.429 235.984,364.413 "/>
<polygon style="fill:#9ABADB;" points="0,384.429 0,512 256,512 256,364.413 "/>
<polygon style="fill:#294B6E;" points="256,256.858 235.984,320.645 256,384.429 512,384.429 512,256.858 "/>
<rect y="256.86" style="fill:#6283A3;" width="256" height="127.57"/>
<g>
	<rect x="47.839" y="305.64" style="fill:#FFED94;" width="31.893" height="30"/>
	<rect x="111.62" y="305.64" style="fill:#FFED94;" width="31.893" height="30"/>
</g>
<g>
	<rect x="368.47" y="305.64" style="fill:#FFCD00;" width="31.893" height="30"/>
	<rect x="432.25" y="305.64" style="fill:#FFCD00;" width="31.893" height="30"/>
</g>
<g>
	<rect x="47.839" y="433.21" style="fill:#FFED94;" width="31.893" height="30"/>
	<rect x="111.62" y="433.21" style="fill:#FFED94;" width="31.893" height="30"/>
</g>
<g>
	<rect x="368.47" y="433.21" style="fill:#FFCD00;" width="31.893" height="30"/>
	<rect x="432.25" y="433.21" style="fill:#FFCD00;" width="31.893" height="30"/>
</g>
<path style="fill:#D1E8FF;" d="M378.212,121.664c0.016-0.563,0.043-1.122,0.043-1.689c0-31.132-25.237-56.368-56.368-56.368
	c-7.371,0-14.405,1.43-20.859,4.003c-4.15-26.635-21.44-48.909-45.027-60.015L234.54,116.754L256,193.073h121.978
	c19.722,0,35.71-15.988,35.71-35.71C413.688,137.719,397.825,121.791,378.212,121.664z"/>
<path style="fill:#F5F5FF;" d="M221.961,0c-44.199,0-80.029,35.83-80.029,80.029c0,2.578,0.133,5.123,0.372,7.638
	c-24.984,4.322-43.992,26.087-43.992,52.306c0,29.327,23.774,53.1,53.1,53.1H256V7.596C245.669,2.732,234.137,0,221.961,0z"/>
<g>
</g>
<g>
</g>
<g>
</g>
<g>
</g>
<g>
</g>
<g>
</g>
<g>
</g>
<g>
</g>
<g>
</g>
<g>
</g>
<g>
</g>
<g>
</g>
<g>
</g>
<g>
</g>
<g>
</g>
</svg>
