<?xml version="1.0" encoding="iso-8859-1"?>
<!-- Generator: Adobe Illustrator 19.0.0, SVG Export Plug-In . SVG Version: 6.00 Build 0)  -->
<svg version="1.1" id="Capa_1" xmlns="http://www.w3.org/2000/svg" xmlns:xlink="http://www.w3.org/1999/xlink" x="0px" y="0px"
	 viewBox="0 0 512 512" style="enable-background:new 0 0 512 512;" xml:space="preserve">
<path style="fill:#FF0099;" d="M256,0L256,0L235.76,211.136L255.999,512H256c0,0,204.233-130.789,204.233-307.767
	C460.232,91.618,368.615,0,256,0z"/>
<path style="fill:#FF68A5;" d="M51.766,204.233c0,176.955,204.18,307.733,204.233,307.767V0C143.384,0,51.766,91.618,51.766,204.233
	z"/>
<path style="fill:#D1E8FF;" d="M399.539,223.793v-30h-33.867c-2.63-19.325-10.264-37.077-21.552-51.909l23.984-23.984
	l-21.213-21.213l-23.984,23.984c-14.832-11.289-32.584-18.923-51.909-21.552V65.252h-15l-10.008,48.415l10.009,14.432l0,0
	c44.494,0,80.693,36.199,80.693,80.693c0,44.495-36.199,80.694-80.693,80.694l0,0l-10.008,12.847l10.008,50.001h15v-33.868
	c19.325-2.63,37.077-10.264,51.909-21.552l23.984,23.984l21.213-21.213l-23.984-23.984c11.288-14.831,18.922-32.584,21.552-51.908
	L399.539,223.793L399.539,223.793z"/>
<path style="fill:#F5F5FF;" d="M175.305,208.792c0-44.494,36.199-80.693,80.694-80.693V65.252h-15v33.867
	c-19.324,2.63-37.077,10.264-51.908,21.552l-23.984-23.984L143.895,117.9l23.984,23.984c-11.289,14.832-18.923,32.584-21.552,51.909
	h-33.867v30h33.867c2.63,19.324,10.264,37.077,21.552,51.908l-23.984,23.984l21.213,21.213l23.984-23.984
	c14.831,11.288,32.584,18.922,51.908,21.552v33.868h15v-62.848C211.505,289.486,175.305,253.287,175.305,208.792z"/>
<path style="fill:#D1E8FF;" d="M302.914,208.792c0-25.869-21.046-46.915-46.915-46.915l0,0L245.992,179l10.008,12.877l0,0
	c9.327,0,16.915,7.588,16.915,16.915s-7.588,16.915-16.915,16.915l0,0L245.992,239l10.008,16.707l0,0
	C281.868,255.707,302.914,234.661,302.914,208.792z"/>
<path style="fill:#F5F5FF;" d="M239.085,208.792c0-9.327,7.588-16.915,16.915-16.915v-30c-25.869,0-46.915,21.046-46.915,46.915
	s21.046,46.915,46.915,46.915v-30C246.673,225.707,239.085,218.119,239.085,208.792z"/>
<g>
</g>
<g>
</g>
<g>
</g>
<g>
</g>
<g>
</g>
<g>
</g>
<g>
</g>
<g>
</g>
<g>
</g>
<g>
</g>
<g>
</g>
<g>
</g>
<g>
</g>
<g>
</g>
<g>
</g>
</svg>
