<?xml version="1.0" encoding="iso-8859-1"?>
<!-- Generator: Adobe Illustrator 19.0.0, SVG Export Plug-In . SVG Version: 6.00 Build 0)  -->
<svg version="1.1" id="Capa_1" xmlns="http://www.w3.org/2000/svg" xmlns:xlink="http://www.w3.org/1999/xlink" x="0px" y="0px"
	 viewBox="0 0 512 512" style="enable-background:new 0 0 512 512;" xml:space="preserve">
<path style="fill:#FFCD00;" d="M256,0l-20.016,404.445l116.681-20.016v-45.742c51.91-32.326,86.467-89.901,86.467-155.555
	C439.132,81.991,357.141,0,256,0z"/>
<path style="fill:#FFED94;" d="M256,0C154.859,0,72.868,81.991,72.868,183.132c0,65.655,34.557,123.229,86.467,155.555v45.742
	L256,404.445V0L256,0z"/>
<path style="fill:#6283A3;" d="M391.344,198.132v-30H357.43c-2.516-17.086-9.258-32.814-19.133-46.083l24.012-24.012l-21.213-21.213
	l-24.012,24.012C303.815,90.961,288.086,84.218,271,81.702V47.788h-15v62.813c39.993,0,72.53,32.537,72.53,72.53
	c0,39.994-32.537,72.531-72.53,72.531v62.813h15v-33.914c17.086-2.516,32.815-9.259,46.085-19.134l24.012,24.012l21.213-21.213
	l-24.012-24.012c9.875-13.269,16.617-28.998,19.133-46.084h33.913V198.132z"/>
<path style="fill:#9ABADB;" d="M256,255.663c-39.994,0-72.531-32.537-72.531-72.531c0-39.993,32.537-72.53,72.531-72.53l0,0V47.788
	h-15v33.914c-17.086,2.516-32.815,9.259-46.085,19.133l-24.012-24.012L149.69,98.036l24.012,24.012
	c-9.875,13.269-16.617,28.998-19.133,46.084h-33.914v30h33.914c2.516,17.086,9.259,32.815,19.133,46.085l-24.012,24.012
	l21.213,21.213l24.012-24.012c13.269,9.875,28.998,16.618,46.085,19.133v33.914h15V255.663L256,255.663z"/>
<polygon style="fill:#D1E8FF;" points="352.665,448.215 352.665,384.429 256,384.429 235.984,468.231 "/>
<polygon style="fill:#F5F5FF;" points="159.335,448.215 256,468.231 256,384.429 159.335,384.429 "/>
<polygon style="fill:#9ABADB;" points="256,512 352.665,512 352.665,448.215 256,448.215 235.984,480.107 "/>
<rect x="159.34" y="448.21" style="fill:#D1E8FF;" width="96.67" height="63.785"/>
<g>
</g>
<g>
</g>
<g>
</g>
<g>
</g>
<g>
</g>
<g>
</g>
<g>
</g>
<g>
</g>
<g>
</g>
<g>
</g>
<g>
</g>
<g>
</g>
<g>
</g>
<g>
</g>
<g>
</g>
</svg>
