<?xml version="1.0" encoding="iso-8859-1"?>
<!-- Generator: Adobe Illustrator 19.0.0, SVG Export Plug-In . SVG Version: 6.00 Build 0)  -->
<svg version="1.1" id="Capa_1" xmlns="http://www.w3.org/2000/svg" xmlns:xlink="http://www.w3.org/1999/xlink" x="0px" y="0px"
	 viewBox="0 0 512 512" style="enable-background:new 0 0 512 512;" xml:space="preserve">
<path style="fill:#D1E8FF;" d="M454.406,197.517c0.027-0.913,0.069-1.822,0.069-2.742c0-50.541-40.971-91.512-91.512-91.512
	c-11.967,0-23.386,2.321-33.863,6.499c-6.738-43.241-34.807-79.402-73.1-97.431l-34.841,177.216L256,313.446h198.026
	c32.018,0,57.974-25.956,57.974-57.974C512,223.582,486.247,197.724,454.406,197.517z"/>
<path style="fill:#F5F5FF;" d="M200.74,0C128.984,0,70.815,58.169,70.815,129.924c0,4.185,0.217,8.317,0.604,12.4
	C30.858,149.34,0,184.675,0,227.241c0,47.61,38.596,86.206,86.206,86.206H256V12.332C239.229,4.435,220.506,0,200.74,0z"/>
<path style="fill:#FFCD00;" d="M256,166.772l-20.016,294.815l85.661-20.016v-44.798c35.252-21.953,58.719-61.051,58.719-105.637
	C380.364,222.451,324.684,166.772,256,166.772z"/>
<path style="fill:#FFED94;" d="M131.636,291.136c0,44.586,23.467,83.684,58.719,105.637v44.798L256,461.586V166.772
	C187.316,166.772,131.636,222.451,131.636,291.136z"/>
<polygon style="fill:#FF8E00;" points="291.212,269.2 256,304.411 245.992,451.578 271,441.57 271,331.837 312.425,290.413 "/>
<polygon style="fill:#FFCD00;" points="220.788,269.2 199.575,290.413 241,331.837 241,441.57 256,451.578 256,304.411 "/>
<polygon style="fill:#9ABADB;" points="321.645,441.57 256,441.57 235.984,476.785 256,512 321.645,512 "/>
<rect x="190.35" y="441.57" style="fill:#D1E8FF;" width="65.64" height="70.43"/>
<g>
</g>
<g>
</g>
<g>
</g>
<g>
</g>
<g>
</g>
<g>
</g>
<g>
</g>
<g>
</g>
<g>
</g>
<g>
</g>
<g>
</g>
<g>
</g>
<g>
</g>
<g>
</g>
<g>
</g>
</svg>
