<?xml version="1.0" encoding="iso-8859-1"?>
<!-- Generator: Adobe Illustrator 19.0.0, SVG Export Plug-In . SVG Version: 6.00 Build 0)  -->
<svg version="1.1" id="Capa_1" xmlns="http://www.w3.org/2000/svg" xmlns:xlink="http://www.w3.org/1999/xlink" x="0px" y="0px"
	 viewBox="0 0 512 512" style="enable-background:new 0 0 512 512;" xml:space="preserve">
<polygon style="fill:#9ABADB;" points="480.106,116.946 256,116.946 235.984,468.227 480.106,448.211 "/>
<g>
	<polygon style="fill:#D1E8FF;" points="31.894,116.946 31.894,448.211 256,468.227 256,116.946 	"/>
	<polygon style="fill:#D1E8FF;" points="512,448.211 256,448.211 235.984,480.106 256,512 512,512 	"/>
</g>
<rect y="448.21" style="fill:#F5F5FF;" width="256" height="63.789"/>
<polygon style="fill:#294B6E;" points="450.105,146.946 256,146.946 235.984,282.579 256,418.211 450.105,418.211 "/>
<rect x="61.895" y="146.95" style="fill:#6283A3;" width="194.1" height="271.27"/>
<path style="fill:#FFCD00;" d="M256,0l-20.016,314.18l89.89-20.016v-49.346c37.523-23.367,62.502-64.984,62.502-112.442
	C388.376,59.267,329.109,0,256,0z"/>
<path style="fill:#FFED94;" d="M256,0c-73.109,0-132.376,59.267-132.376,132.376c0,47.458,24.979,89.075,62.502,112.442v49.346
	L256,314.18V0z"/>
<polygon style="fill:#FF8E00;" points="291.212,108.628 256,143.84 245.992,304.172 271,294.164 271,171.266 312.425,129.841 "/>
<polygon style="fill:#FFCD00;" points="220.788,108.628 199.575,129.841 241,171.266 241,294.164 256,304.172 256,143.84 "/>
<polygon style="fill:#9ABADB;" points="256,384.429 325.874,384.429 325.874,294.164 256,294.164 235.984,339.297 "/>
<rect x="186.13" y="294.16" style="fill:#D1E8FF;" width="69.874" height="90.27"/>
<g>
</g>
<g>
</g>
<g>
</g>
<g>
</g>
<g>
</g>
<g>
</g>
<g>
</g>
<g>
</g>
<g>
</g>
<g>
</g>
<g>
</g>
<g>
</g>
<g>
</g>
<g>
</g>
<g>
</g>
</svg>
