<?xml version="1.0" encoding="iso-8859-1"?>
<!-- Generator: Adobe Illustrator 19.0.0, SVG Export Plug-In . SVG Version: 6.00 Build 0)  -->
<svg version="1.1" id="Capa_1" xmlns="http://www.w3.org/2000/svg" xmlns:xlink="http://www.w3.org/1999/xlink" x="0px" y="0px"
	 viewBox="0 0 512 512" style="enable-background:new 0 0 512 512;" xml:space="preserve">
<polygon style="fill:#FFED94;" points="459.711,63.785 255.999,63.785 235.983,287.893 255.999,512 459.711,512 "/>
<rect x="52.289" y="63.785" style="fill:#FFF8D4;" width="203.71" height="448.21"/>
<path style="fill:#9ABADB;" d="M382.106,31.893h-81.001C294.537,13.314,276.827,0,255.999,0l-20.016,53.669l20.016,42.009h126.107
	V31.893z"/>
<path style="fill:#D1E8FF;" d="M210.893,31.893h-81v63.786h126.106V0C235.171,0,217.461,13.314,210.893,31.893z"/>
<polygon style="fill:#6283A3;" points="182.731,363.328 107.295,287.893 182.731,212.458 203.944,233.671 149.721,287.893 
	203.944,342.115 "/>
<g>
	<polygon style="fill:#294B6E;" points="329.267,363.328 308.054,342.115 362.277,287.893 308.054,233.671 329.267,212.458 
		404.703,287.893 	"/>
	
		<rect x="240.996" y="198.647" transform="matrix(-0.9808 -0.1951 0.1951 -0.9808 450.9057 620.2081)" style="fill:#294B6E;" width="30" height="178.503"/>
</g>
<g>
</g>
<g>
</g>
<g>
</g>
<g>
</g>
<g>
</g>
<g>
</g>
<g>
</g>
<g>
</g>
<g>
</g>
<g>
</g>
<g>
</g>
<g>
</g>
<g>
</g>
<g>
</g>
<g>
</g>
</svg>
