<?xml version="1.0" encoding="iso-8859-1"?>
<!-- Generator: Adobe Illustrator 19.0.0, SVG Export Plug-In . SVG Version: 6.00 Build 0)  -->
<svg version="1.1" id="Capa_1" xmlns="http://www.w3.org/2000/svg" xmlns:xlink="http://www.w3.org/1999/xlink" x="0px" y="0px"
	 viewBox="0 0 512 512" style="enable-background:new 0 0 512 512;" xml:space="preserve">
<polygon style="fill:#9ABADB;" points="480.106,58.472 256,58.472 235.984,409.753 480.106,389.737 "/>
<g>
	<polygon style="fill:#D1E8FF;" points="31.894,58.472 31.894,389.737 256,409.753 256,58.472 	"/>
	<polygon style="fill:#D1E8FF;" points="512,389.737 256,389.737 235.984,421.632 256,453.526 512,453.526 	"/>
</g>
<rect y="389.739" style="fill:#F5F5FF;" width="256" height="63.789"/>
<polygon style="fill:#294B6E;" points="450.105,88.472 256,88.472 235.984,339.721 294.869,359.737 450.105,359.737 "/>
<g>
	<polygon style="fill:#6283A3;" points="61.895,88.472 61.895,359.737 217.131,359.737 256,339.721 256,88.472 	"/>
	<polygon style="fill:#6283A3;" points="289.553,128.639 289.553,236.185 256,257.448 235.984,301.999 256,359.737 294.869,359.737 
		294.869,318.906 353.342,281.851 353.342,149.902 	"/>
</g>
<polygon style="fill:#9ABADB;" points="222.447,236.185 222.447,128.639 158.658,149.902 158.658,281.851 217.131,318.905 
	217.131,359.737 256,359.737 256,257.448 "/>
<g>
</g>
<g>
</g>
<g>
</g>
<g>
</g>
<g>
</g>
<g>
</g>
<g>
</g>
<g>
</g>
<g>
</g>
<g>
</g>
<g>
</g>
<g>
</g>
<g>
</g>
<g>
</g>
<g>
</g>
</svg>
