<?xml version="1.0" encoding="iso-8859-1"?>
<!-- Generator: Adobe Illustrator 19.0.0, SVG Export Plug-In . SVG Version: 6.00 Build 0)  -->
<svg version="1.1" id="Capa_1" xmlns="http://www.w3.org/2000/svg" xmlns:xlink="http://www.w3.org/1999/xlink" x="0px" y="0px"
	 viewBox="0 0 512 512" style="enable-background:new 0 0 512 512;" xml:space="preserve">
<path style="fill:#D1E8FF;" d="M417.591,160.777c0.022-0.743,0.056-1.483,0.056-2.232c0-41.14-33.35-74.489-74.49-74.489
	c-9.741,0-19.036,1.89-27.564,5.29c-5.484-35.198-28.333-64.632-59.502-79.308l-28.36,144.252l28.36,100.852h161.191
	c26.062,0,47.19-21.128,47.19-47.19C464.472,181.993,443.509,160.945,417.591,160.777z"/>
<path style="fill:#F5F5FF;" d="M211.109,0c-58.408,0-105.757,47.349-105.757,105.757c0,3.406,0.176,6.77,0.491,10.093
	c-33.016,5.711-58.134,34.473-58.134,69.121c0,38.754,31.416,70.17,70.171,70.17h138.211V10.038C242.439,3.61,227.199,0,211.109,0z"
	/>
<polygon style="fill:#6283A3;" points="384.167,415.464 405.254,382.188 511.91,382.188 490.823,318.927 359.966,318.927 
	323.218,376.916 256,376.916 235.984,415.464 256,454.011 323.218,454.011 359.966,512 490.823,512 511.91,448.739 405.254,448.739 
	"/>
<rect x="0.09" y="376.92" style="fill:#9ABADB;" width="255.91" height="77.09"/>
<g>
</g>
<g>
</g>
<g>
</g>
<g>
</g>
<g>
</g>
<g>
</g>
<g>
</g>
<g>
</g>
<g>
</g>
<g>
</g>
<g>
</g>
<g>
</g>
<g>
</g>
<g>
</g>
<g>
</g>
</svg>
