<?xml version="1.0" encoding="iso-8859-1"?>
<!-- Generator: Adobe Illustrator 19.0.0, SVG Export Plug-In . SVG Version: 6.00 Build 0)  -->
<svg version="1.1" id="Capa_1" xmlns="http://www.w3.org/2000/svg" xmlns:xlink="http://www.w3.org/1999/xlink" x="0px" y="0px"
	 viewBox="0 0 512 512" style="enable-background:new 0 0 512 512;" xml:space="preserve">
<polygon style="fill:#6283A3;" points="256,255.142 512,255.142 512,127.571 235.984,107.555 "/>
<polygon style="fill:#9ABADB;" points="0,127.571 0,255.142 256,255.142 256,107.555 "/>
<polygon style="fill:#294B6E;" points="256,0 235.984,63.786 256,127.571 512,127.571 512,0 "/>
<rect style="fill:#6283A3;" width="256" height="127.57"/>
<g>
	<rect x="47.839" y="48.786" style="fill:#FFED94;" width="31.893" height="30"/>
	<rect x="111.62" y="48.786" style="fill:#FFED94;" width="31.893" height="30"/>
</g>
<g>
	<rect x="368.47" y="48.786" style="fill:#FFCD00;" width="31.893" height="30"/>
	<rect x="432.25" y="48.786" style="fill:#FFCD00;" width="31.893" height="30"/>
</g>
<g>
	<rect x="47.839" y="176.36" style="fill:#FFED94;" width="31.893" height="30"/>
	<rect x="111.62" y="176.36" style="fill:#FFED94;" width="31.893" height="30"/>
</g>
<g>
	<rect x="368.47" y="176.36" style="fill:#FFCD00;" width="31.893" height="30"/>
	<rect x="432.25" y="176.36" style="fill:#FFCD00;" width="31.893" height="30"/>
</g>
<polygon style="fill:#6283A3;" points="384.258,415.464 405.345,382.188 512,382.188 490.913,318.927 360.057,318.927 
	323.309,376.916 256.091,376.916 236.075,415.464 256.091,454.011 323.309,454.011 360.057,512 490.913,512 512,448.739 
	405.345,448.739 "/>
<rect x="0.181" y="376.92" style="fill:#9ABADB;" width="255.91" height="77.09"/>
<g>
</g>
<g>
</g>
<g>
</g>
<g>
</g>
<g>
</g>
<g>
</g>
<g>
</g>
<g>
</g>
<g>
</g>
<g>
</g>
<g>
</g>
<g>
</g>
<g>
</g>
<g>
</g>
<g>
</g>
</svg>
