<?xml version="1.0" encoding="iso-8859-1"?>
<!-- Generator: Adobe Illustrator 19.0.0, SVG Export Plug-In . SVG Version: 6.00 Build 0)  -->
<svg version="1.1" id="Capa_1" xmlns="http://www.w3.org/2000/svg" xmlns:xlink="http://www.w3.org/1999/xlink" x="0px" y="0px"
	 viewBox="0 0 512 512" style="enable-background:new 0 0 512 512;" xml:space="preserve">
<polygon style="fill:#9ABADB;" points="271,341.256 271,230.539 256,230.539 245.992,461.957 271,461.957 271,371.256 
	456.686,371.256 456.686,451.388 486.686,451.388 486.686,341.256 "/>
<polygon style="fill:#D1E8FF;" points="241,230.539 241,341.256 25.314,341.256 25.314,451.388 55.314,451.388 55.314,371.256 
	241,371.256 241,461.957 256,461.957 256,230.539 "/>
<polygon style="fill:#FF0099;" points="80.628,431.372 40.314,431.372 26.209,471.686 40.314,512 80.628,512 "/>
<rect y="431.37" style="fill:#FF68A5;" width="40.31" height="80.63"/>
<polygon style="fill:#FF0099;" points="296.314,431.372 256,431.372 241.895,471.686 256,512 296.314,512 "/>
<rect x="215.69" y="431.37" style="fill:#FF68A5;" width="40.31" height="80.63"/>
<polygon style="fill:#FF0099;" points="512,431.372 471.686,431.372 457.581,471.686 471.686,512 512,512 "/>
<rect x="431.37" y="431.37" style="fill:#FF68A5;" width="40.31" height="80.63"/>
<polygon style="fill:#6283A3;" points="256,255.142 512,255.142 512,127.571 235.984,107.555 "/>
<polygon style="fill:#9ABADB;" points="0,127.571 0,255.142 256,255.142 256,107.555 "/>
<polygon style="fill:#294B6E;" points="256,0 235.984,63.786 256,127.571 512,127.571 512,0 "/>
<rect style="fill:#6283A3;" width="256" height="127.57"/>
<g>
	<rect x="47.839" y="48.786" style="fill:#FFED94;" width="31.893" height="30"/>
	<rect x="111.62" y="48.786" style="fill:#FFED94;" width="31.893" height="30"/>
</g>
<g>
	<rect x="368.47" y="48.786" style="fill:#FFCD00;" width="31.893" height="30"/>
	<rect x="432.25" y="48.786" style="fill:#FFCD00;" width="31.893" height="30"/>
</g>
<g>
	<rect x="47.839" y="176.36" style="fill:#FFED94;" width="31.893" height="30"/>
	<rect x="111.62" y="176.36" style="fill:#FFED94;" width="31.893" height="30"/>
</g>
<g>
	<rect x="368.47" y="176.36" style="fill:#FFCD00;" width="31.893" height="30"/>
	<rect x="432.25" y="176.36" style="fill:#FFCD00;" width="31.893" height="30"/>
</g>
<g>
</g>
<g>
</g>
<g>
</g>
<g>
</g>
<g>
</g>
<g>
</g>
<g>
</g>
<g>
</g>
<g>
</g>
<g>
</g>
<g>
</g>
<g>
</g>
<g>
</g>
<g>
</g>
<g>
</g>
</svg>
