<?xml version="1.0" encoding="iso-8859-1"?>
<!-- Generator: Adobe Illustrator 19.0.0, SVG Export Plug-In . SVG Version: 6.00 Build 0)  -->
<svg version="1.1" id="Capa_1" xmlns="http://www.w3.org/2000/svg" xmlns:xlink="http://www.w3.org/1999/xlink" x="0px" y="0px"
	 viewBox="0 0 512 512" style="enable-background:new 0 0 512 512;" xml:space="preserve">
<polygon style="fill:#9ABADB;" points="480.106,58.472 256,58.472 235.984,409.753 480.106,389.737 "/>
<g>
	<polygon style="fill:#D1E8FF;" points="31.894,58.472 31.894,389.737 256,409.753 256,58.472 	"/>
	<polygon style="fill:#D1E8FF;" points="512,389.737 256,389.737 235.984,421.632 256,453.526 512,453.526 	"/>
</g>
<rect y="389.739" style="fill:#F5F5FF;" width="256" height="63.789"/>
<polygon style="fill:#294B6E;" points="450.105,88.472 256,88.472 235.984,224.105 256,359.737 450.105,359.737 "/>
<rect x="61.895" y="88.469" style="fill:#6283A3;" width="194.1" height="271.27"/>
<polygon style="fill:#F5F5FF;" points="178.828,303.579 99.354,224.104 178.828,144.631 200.041,165.844 141.78,224.104 
	200.041,282.366 "/>
<g>
	<polygon style="fill:#D1E8FF;" points="333.172,303.579 311.959,282.366 370.22,224.104 311.959,165.844 333.172,144.631 
		412.646,224.104 	"/>
	
		<rect x="240.999" y="129.304" transform="matrix(-0.9808 -0.1951 0.1951 -0.9808 463.3543 493.8693)" style="fill:#D1E8FF;" width="30" height="189.623"/>
</g>
<g>
</g>
<g>
</g>
<g>
</g>
<g>
</g>
<g>
</g>
<g>
</g>
<g>
</g>
<g>
</g>
<g>
</g>
<g>
</g>
<g>
</g>
<g>
</g>
<g>
</g>
<g>
</g>
<g>
</g>
</svg>
