<?xml version="1.0" encoding="iso-8859-1"?>
<!-- Generator: Adobe Illustrator 19.0.0, SVG Export Plug-In . SVG Version: 6.00 Build 0)  -->
<svg version="1.1" id="Capa_1" xmlns="http://www.w3.org/2000/svg" xmlns:xlink="http://www.w3.org/1999/xlink" x="0px" y="0px"
	 viewBox="0 0 512 512" style="enable-background:new 0 0 512 512;" xml:space="preserve">
<polygon style="fill:#9ABADB;" points="271,271.078 256,271.078 245.992,391.174 271,391.174 "/>
<g>
	<rect x="241" y="271.08" style="fill:#D1E8FF;" width="15" height="120.1"/>
	<path style="fill:#D1E8FF;" d="M423.529,203.215c0.023-0.771,0.058-1.538,0.058-2.315c0-42.676-34.595-77.27-77.27-77.27
		c-10.105,0-19.747,1.96-28.593,5.488c-5.689-36.513-29.391-67.047-61.724-82.27l-29.419,149.637L256,301.102h167.209
		c27.035,0,48.952-21.917,48.952-48.952C472.16,225.223,450.415,203.389,423.529,203.215z"/>
</g>
<path style="fill:#F5F5FF;" d="M209.339,36.436c-60.588,0-109.705,49.117-109.705,109.705c0,3.533,0.183,7.023,0.51,10.47
	c-34.248,5.924-60.304,35.76-60.304,71.702c0,40.201,32.589,72.79,72.79,72.79H256V46.848
	C241.839,40.18,226.03,36.436,209.339,36.436z"/>
<rect y="403.36" style="fill:#D1E8FF;" width="228.82" height="30"/>
<rect x="283.18" y="403.36" style="fill:#9ABADB;" width="228.82" height="30"/>
<polygon style="fill:#FF0099;" points="313.207,361.15 256,361.15 235.984,418.357 256,475.564 313.207,475.564 "/>
<rect x="198.79" y="361.15" style="fill:#FF68A5;" width="57.21" height="114.41"/>
<g>
</g>
<g>
</g>
<g>
</g>
<g>
</g>
<g>
</g>
<g>
</g>
<g>
</g>
<g>
</g>
<g>
</g>
<g>
</g>
<g>
</g>
<g>
</g>
<g>
</g>
<g>
</g>
<g>
</g>
</svg>
