<?xml version="1.0" encoding="iso-8859-1"?>
<!-- Generator: Adobe Illustrator 19.0.0, SVG Export Plug-In . SVG Version: 6.00 Build 0)  -->
<svg version="1.1" id="Capa_1" xmlns="http://www.w3.org/2000/svg" xmlns:xlink="http://www.w3.org/1999/xlink" x="0px" y="0px"
	 viewBox="0 0 512 512" style="enable-background:new 0 0 512 512;" xml:space="preserve">
<polygon style="fill:#9ABADB;" points="271,341.256 271,250.555 256,250.555 245.992,461.957 271,461.957 271,371.256 
	456.686,371.256 456.686,451.388 486.686,451.388 486.686,341.256 "/>
<g>
	<polygon style="fill:#D1E8FF;" points="241,250.555 241,341.256 25.314,341.256 25.314,451.388 55.314,451.388 55.314,371.256 
		241,371.256 241,461.957 256,461.957 256,250.555 	"/>
	<path style="fill:#D1E8FF;" d="M433.956,177.159c0.024-0.819,0.062-1.634,0.062-2.459c0-45.332-36.748-82.08-82.08-82.08
		c-10.734,0-20.976,2.082-30.373,5.829c-6.043-38.784-31.22-71.218-65.566-87.389l-31.25,158.95L256,281.14h177.616
		c28.718,0,51.999-23.281,51.999-51.999C485.614,200.538,462.516,177.344,433.956,177.159z"/>
</g>
<path style="fill:#F5F5FF;" d="M206.435,0C142.076,0,89.902,52.174,89.902,116.533c0,3.753,0.194,7.46,0.541,11.122
	c-36.38,6.293-64.058,37.986-64.058,76.165c0,42.703,34.618,77.32,77.321,77.32H256V11.061C240.957,3.978,224.164,0,206.435,0z"/>
<polygon style="fill:#FF0099;" points="80.628,431.372 40.314,431.372 26.209,471.686 40.314,512 80.628,512 "/>
<rect y="431.37" style="fill:#FF68A5;" width="40.31" height="80.63"/>
<polygon style="fill:#FF0099;" points="296.314,431.372 256,431.372 241.895,471.686 256,512 296.314,512 "/>
<rect x="215.69" y="431.37" style="fill:#FF68A5;" width="40.31" height="80.63"/>
<polygon style="fill:#FF0099;" points="512,431.372 471.686,431.372 457.581,471.686 471.686,512 512,512 "/>
<rect x="431.37" y="431.37" style="fill:#FF68A5;" width="40.31" height="80.63"/>
<g>
</g>
<g>
</g>
<g>
</g>
<g>
</g>
<g>
</g>
<g>
</g>
<g>
</g>
<g>
</g>
<g>
</g>
<g>
</g>
<g>
</g>
<g>
</g>
<g>
</g>
<g>
</g>
<g>
</g>
</svg>
