<?xml version="1.0" encoding="iso-8859-1"?>
<!-- Generator: Adobe Illustrator 19.0.0, SVG Export Plug-In . SVG Version: 6.00 Build 0)  -->
<svg version="1.1" id="Capa_1" xmlns="http://www.w3.org/2000/svg" xmlns:xlink="http://www.w3.org/1999/xlink" x="0px" y="0px"
	 viewBox="0 0 512 512" style="enable-background:new 0 0 512 512;" xml:space="preserve">
<polygon style="fill:#9ABADB;" points="332.663,473.644 332.663,413.596 235.984,393.58 256,473.644 "/>
<g>
	<polygon style="fill:#D1E8FF;" points="179.337,473.644 256,473.644 256,393.58 179.337,413.596 	"/>
	<polygon style="fill:#D1E8FF;" points="512,323.524 235.984,303.508 256,413.596 512,413.596 	"/>
</g>
<polygon style="fill:#F5F5FF;" points="0,323.524 0,413.596 256,413.596 256,303.508 "/>
<polygon style="fill:#D1E8FF;" points="377.699,458.644 256,458.644 245.992,473.644 256,488.644 377.699,488.644 "/>
<rect x="134.3" y="458.64" style="fill:#F5F5FF;" width="121.7" height="30"/>
<polygon style="fill:#294B6E;" points="512,23.356 256,23.356 235.984,173.44 256,323.524 512,323.524 "/>
<g>
	<rect y="23.356" style="fill:#6283A3;" width="256" height="300.17"/>
	<polygon style="fill:#6283A3;" points="287.586,89.409 287.586,190.648 256,210.664 235.984,240.167 256,353.548 292.59,353.548 
		292.59,268.518 347.634,233.636 347.634,109.425 	"/>
</g>
<polygon style="fill:#9ABADB;" points="224.414,190.648 224.414,89.409 164.366,109.425 164.366,233.636 219.41,268.517 
	219.41,353.548 256,353.548 256,210.664 "/>
<g>
</g>
<g>
</g>
<g>
</g>
<g>
</g>
<g>
</g>
<g>
</g>
<g>
</g>
<g>
</g>
<g>
</g>
<g>
</g>
<g>
</g>
<g>
</g>
<g>
</g>
<g>
</g>
<g>
</g>
</svg>
