<?xml version="1.0" encoding="iso-8859-1"?>
<!-- Generator: Adobe Illustrator 19.0.0, SVG Export Plug-In . SVG Version: 6.00 Build 0)  -->
<svg version="1.1" id="Capa_1" xmlns="http://www.w3.org/2000/svg" xmlns:xlink="http://www.w3.org/1999/xlink" x="0px" y="0px"
	 viewBox="0 0 512 512" style="enable-background:new 0 0 512 512;" xml:space="preserve">
<polygon style="fill:#D1E8FF;" points="512,127.571 235.984,107.555 256,448.215 512,448.215 "/>
<polygon style="fill:#F5F5FF;" points="0,127.571 0,448.215 256,448.215 256,107.555 "/>
<polygon style="fill:#6283A3;" points="512,0 256,0 235.984,63.785 256,127.571 512,127.571 "/>
<rect style="fill:#9ABADB;" width="256" height="127.57"/>
<rect x="47.839" y="48.786" style="fill:#FF0099;" width="31.893" height="30"/>
<rect x="111.62" y="48.786" style="fill:#FFED94;" width="31.893" height="30"/>
<rect x="175.41" y="48.786" style="fill:#0093C4;" width="31.893" height="30"/>
<polygon style="fill:#6283A3;" points="289.553,181.133 289.553,288.678 256,309.941 235.984,354.493 256,512 294.869,512 
	294.869,371.399 353.342,334.344 353.342,202.396 "/>
<polygon style="fill:#9ABADB;" points="222.447,288.678 222.447,181.133 158.658,202.396 158.658,334.344 217.131,371.399 
	217.131,512 256,512 256,309.941 "/>
<g>
</g>
<g>
</g>
<g>
</g>
<g>
</g>
<g>
</g>
<g>
</g>
<g>
</g>
<g>
</g>
<g>
</g>
<g>
</g>
<g>
</g>
<g>
</g>
<g>
</g>
<g>
</g>
<g>
</g>
</svg>
