<?xml version="1.0" encoding="iso-8859-1"?>
<!-- Generator: Adobe Illustrator 19.0.0, SVG Export Plug-In . SVG Version: 6.00 Build 0)  -->
<svg version="1.1" id="Capa_1" xmlns="http://www.w3.org/2000/svg" xmlns:xlink="http://www.w3.org/1999/xlink" x="0px" y="0px"
	 viewBox="0 0 512 512" style="enable-background:new 0 0 512 512;" xml:space="preserve">
<polygon style="fill:#9ABADB;" points="332.663,473.644 332.663,413.596 235.984,393.58 256,473.644 "/>
<g>
	<polygon style="fill:#D1E8FF;" points="179.337,473.644 256,473.644 256,393.58 179.337,413.596 	"/>
	<polygon style="fill:#D1E8FF;" points="512,323.524 235.984,303.508 256,413.596 512,413.596 	"/>
</g>
<polygon style="fill:#F5F5FF;" points="0,323.524 0,413.596 256,413.596 256,303.508 "/>
<polygon style="fill:#D1E8FF;" points="377.699,458.644 256,458.644 245.992,473.644 256,488.644 377.699,488.644 "/>
<rect x="134.3" y="458.64" style="fill:#F5F5FF;" width="121.7" height="30"/>
<polygon style="fill:#294B6E;" points="512,23.356 256,23.356 235.984,173.44 256,323.524 512,323.524 "/>
<rect y="23.356" style="fill:#6283A3;" width="256" height="300.17"/>
<path style="fill:#D1E8FF;" d="M369.982,196.876c0.015-0.525,0.04-1.047,0.04-1.575c0-29.035-23.538-52.573-52.573-52.573
	c-6.875,0-13.435,1.334-19.454,3.734c-3.871-24.842-19.997-45.616-41.995-55.973l-20.016,101.809L256,263.476h113.764
	c18.394,0,33.306-14.911,33.306-33.306C403.07,211.85,388.275,196.994,369.982,196.876z"/>
<path style="fill:#F5F5FF;" d="M224.253,83.404c-41.223,0-74.64,33.418-74.64,74.64c0,2.404,0.125,4.778,0.347,7.124
	c-23.302,4.031-41.03,24.33-41.03,48.784c0,27.352,22.173,49.524,49.525,49.524H256V90.488
	C246.365,85.952,235.609,83.404,224.253,83.404z"/>
<g>
</g>
<g>
</g>
<g>
</g>
<g>
</g>
<g>
</g>
<g>
</g>
<g>
</g>
<g>
</g>
<g>
</g>
<g>
</g>
<g>
</g>
<g>
</g>
<g>
</g>
<g>
</g>
<g>
</g>
</svg>
