<?xml version="1.0" encoding="iso-8859-1"?>
<!-- Generator: Adobe Illustrator 19.0.0, SVG Export Plug-In . SVG Version: 6.00 Build 0)  -->
<svg version="1.1" id="Capa_1" xmlns="http://www.w3.org/2000/svg" xmlns:xlink="http://www.w3.org/1999/xlink" x="0px" y="0px"
	 viewBox="0 0 512 512" style="enable-background:new 0 0 512 512;" xml:space="preserve">
<polygon style="fill:#9ABADB;" points="332.663,473.644 332.663,413.596 235.984,393.58 256,473.644 "/>
<g>
	<polygon style="fill:#D1E8FF;" points="179.337,473.644 256,473.644 256,393.58 179.337,413.596 	"/>
	<polygon style="fill:#D1E8FF;" points="512,323.524 235.984,303.508 256,413.596 512,413.596 	"/>
</g>
<polygon style="fill:#F5F5FF;" points="0,323.524 0,413.596 256,413.596 256,303.508 "/>
<polygon style="fill:#D1E8FF;" points="377.699,458.644 256,458.644 245.992,473.644 256,488.644 377.699,488.644 "/>
<rect x="134.3" y="458.64" style="fill:#F5F5FF;" width="121.7" height="30"/>
<polygon style="fill:#294B6E;" points="512,23.356 256,23.356 235.984,173.44 256,323.524 512,323.524 "/>
<rect y="23.356" style="fill:#6283A3;" width="256" height="300.17"/>
<rect x="316.777" y="142.297" transform="matrix(-0.7071 -0.7071 0.7071 -0.7071 446.5055 524.0012)" style="fill:#9ABADB;" width="30" height="54.459"/>
<rect x="152.989" y="154.528" transform="matrix(-0.7071 -0.7071 0.7071 -0.7071 187.7784 416.8368)" style="fill:#D1E8FF;" width="54.459" height="30"/>
<polygon style="fill:#9ABADB;" points="286.529,93.025 256,93.025 235.984,157.574 286.529,157.573 "/>
<rect x="225.47" y="93.03" style="fill:#D1E8FF;" width="30.529" height="64.55"/>
<path style="fill:#6283A3;" d="M256,135.341L235.984,248.5L256,361.272c62.389,0,112.966-50.576,112.966-112.966
	S318.389,135.341,256,135.341z"/>
<path style="fill:#9ABADB;" d="M143.034,248.307c0,62.389,50.576,112.966,112.966,112.966V135.341
	C193.611,135.341,143.034,185.918,143.034,248.307z"/>
<rect x="263.704" y="193.499" transform="matrix(-0.7071 -0.7071 0.7071 -0.7071 316.2505 582.2033)" style="fill:#294B6E;" width="30" height="64.209"/>
<g>
</g>
<g>
</g>
<g>
</g>
<g>
</g>
<g>
</g>
<g>
</g>
<g>
</g>
<g>
</g>
<g>
</g>
<g>
</g>
<g>
</g>
<g>
</g>
<g>
</g>
<g>
</g>
<g>
</g>
</svg>
