<?xml version="1.0" encoding="iso-8859-1"?>
<!-- Generator: Adobe Illustrator 19.0.0, SVG Export Plug-In . SVG Version: 6.00 Build 0)  -->
<svg version="1.1" id="Capa_1" xmlns="http://www.w3.org/2000/svg" xmlns:xlink="http://www.w3.org/1999/xlink" x="0px" y="0px"
	 viewBox="0 0 512 512" style="enable-background:new 0 0 512 512;" xml:space="preserve">
<path style="fill:#D1E8FF;" d="M454.406,197.517c0.027-0.913,0.069-1.822,0.069-2.742c0-50.541-40.971-91.511-91.512-91.511
	c-11.967,0-23.386,2.322-33.863,6.499c-6.738-43.244-34.803-79.421-73.1-97.449l-20.016,155.353L256,313.446h198.026
	c32.018,0,57.974-25.956,57.974-57.974C512,223.582,486.247,197.724,454.406,197.517z"/>
<path style="fill:#F5F5FF;" d="M200.74,0C128.984,0,70.815,58.169,70.815,129.924c0,4.185,0.217,8.317,0.604,12.4
	C30.858,149.34,0,184.675,0,227.241c0,47.61,38.596,86.206,86.206,86.206H256V12.314C239.231,4.42,220.503,0,200.74,0z"/>
<rect x="343.326" y="250.81" transform="matrix(-0.7071 -0.7071 0.7071 -0.7071 416.7206 724.0994)" style="fill:#9ABADB;" width="30" height="49.869"/>
<rect x="128.743" y="260.739" transform="matrix(-0.7071 -0.7071 0.7071 -0.7071 67.367 579.3823)" style="fill:#D1E8FF;" width="49.869" height="30"/>
<polygon style="fill:#9ABADB;" points="293.774,193.761 256,193.761 235.984,265.56 293.774,265.56 "/>
<rect x="218.23" y="193.76" style="fill:#D1E8FF;" width="37.774" height="71.799"/>
<path style="fill:#6283A3;" d="M256,244.138l-20.016,133.931L256,512c73.968,0,133.931-59.963,133.931-133.931
	S329.968,244.138,256,244.138z"/>
<path style="fill:#9ABADB;" d="M122.069,378.069C122.069,452.037,182.032,512,256,512V244.138
	C182.032,244.138,122.069,304.101,122.069,378.069z"/>
<rect x="270.724" y="306.311" transform="matrix(-0.7071 -0.7071 0.7071 -0.7071 241.4478 796.6927)" style="fill:#294B6E;" width="30" height="84.059"/>
<g>
</g>
<g>
</g>
<g>
</g>
<g>
</g>
<g>
</g>
<g>
</g>
<g>
</g>
<g>
</g>
<g>
</g>
<g>
</g>
<g>
</g>
<g>
</g>
<g>
</g>
<g>
</g>
<g>
</g>
</svg>
