<?xml version="1.0" encoding="iso-8859-1"?>
<!-- Generator: Adobe Illustrator 19.0.0, SVG Export Plug-In . SVG Version: 6.00 Build 0)  -->
<svg version="1.1" id="Capa_1" xmlns="http://www.w3.org/2000/svg" xmlns:xlink="http://www.w3.org/1999/xlink" x="0px" y="0px"
	 viewBox="0 0 512 512" style="enable-background:new 0 0 512 512;" xml:space="preserve">
<polygon style="fill:#D1E8FF;" points="512,127.571 235.984,107.555 256,448.215 512,448.215 "/>
<polygon style="fill:#F5F5FF;" points="0,127.571 0,448.215 256,448.215 256,107.555 "/>
<polygon style="fill:#6283A3;" points="512,0 256,0 235.984,63.785 256,127.571 512,127.571 "/>
<rect style="fill:#9ABADB;" width="256" height="127.57"/>
<rect x="47.839" y="48.786" style="fill:#FF0099;" width="31.893" height="30"/>
<rect x="111.62" y="48.786" style="fill:#FFED94;" width="31.893" height="30"/>
<rect x="175.41" y="48.786" style="fill:#0093C4;" width="31.893" height="30"/>
<rect x="343.326" y="250.81" transform="matrix(-0.7071 -0.7071 0.7071 -0.7071 416.7206 724.0994)" style="fill:#9ABADB;" width="30" height="49.869"/>
<rect x="128.743" y="260.739" transform="matrix(-0.7071 -0.7071 0.7071 -0.7071 67.367 579.3823)" style="fill:#D1E8FF;" width="49.869" height="30"/>
<polygon style="fill:#9ABADB;" points="293.774,193.761 256,193.761 235.984,265.56 293.774,265.56 "/>
<rect x="218.23" y="193.76" style="fill:#D1E8FF;" width="37.774" height="71.799"/>
<path style="fill:#6283A3;" d="M256,244.138l-20.016,133.931L256,512c73.968,0,133.931-59.963,133.931-133.931
	S329.968,244.138,256,244.138z"/>
<path style="fill:#9ABADB;" d="M122.069,378.069C122.069,452.037,182.032,512,256,512V244.138
	C182.032,244.138,122.069,304.101,122.069,378.069z"/>
<rect x="270.724" y="306.311" transform="matrix(-0.7071 -0.7071 0.7071 -0.7071 241.4478 796.6927)" style="fill:#294B6E;" width="30" height="84.059"/>
<g>
</g>
<g>
</g>
<g>
</g>
<g>
</g>
<g>
</g>
<g>
</g>
<g>
</g>
<g>
</g>
<g>
</g>
<g>
</g>
<g>
</g>
<g>
</g>
<g>
</g>
<g>
</g>
<g>
</g>
</svg>
