<?xml version="1.0" encoding="iso-8859-1"?>
<!-- Generator: Adobe Illustrator 19.0.0, SVG Export Plug-In . SVG Version: 6.00 Build 0)  -->
<svg version="1.1" id="Capa_1" xmlns="http://www.w3.org/2000/svg" xmlns:xlink="http://www.w3.org/1999/xlink" x="0px" y="0px"
	 viewBox="0 0 512 512" style="enable-background:new 0 0 512 512;" xml:space="preserve">
<polygon style="fill:#D1E8FF;" points="512,127.571 235.984,107.555 256,448.215 512,448.215 "/>
<polygon style="fill:#F5F5FF;" points="0,127.571 0,448.215 256,448.215 256,107.555 "/>
<path style="fill:#00C7FF;" d="M256,191.356L235.984,349.21L256,512c88.543,0,160.322-71.779,160.322-160.322
	C416.322,263.135,344.543,191.356,256,191.356z"/>
<path style="fill:#04F6FF;" d="M95.678,351.678C95.678,440.221,167.457,512,256,512V191.356
	C167.457,191.356,95.678,263.135,95.678,351.678z"/>
<path style="fill:#D1E8FF;" d="M305.682,351.678c0,27.395-22.287,49.682-49.682,49.682l-10.008,16.973L256,464.161h15v-34.237
	c10.835-2.073,20.902-6.334,29.708-12.325l24.223,24.223l21.213-21.213l-24.223-24.222c5.991-8.806,10.252-18.872,12.325-29.708
	h34.237v-30h-34.237c-2.073-10.836-6.334-20.902-12.325-29.708l24.223-24.223l-21.213-21.213l-24.223,24.223
	c-8.806-5.991-18.873-10.252-29.708-12.325v-34.237h-15L245.992,285L256,301.997C283.395,301.997,305.682,324.283,305.682,351.678z"
	/>
<path style="fill:#F5F5FF;" d="M241,273.432c-10.835,2.073-20.902,6.333-29.708,12.325l-24.223-24.223l-21.213,21.213l24.223,24.223
	c-5.992,8.806-10.252,18.873-12.325,29.708h-34.237v30h34.237c2.073,10.835,6.334,20.902,12.325,29.708l-24.223,24.222
	l21.213,21.213l24.223-24.223c8.806,5.991,18.873,10.252,29.708,12.325v34.237h15v-62.8c-27.395,0-49.682-22.287-49.682-49.682
	c0-27.395,22.287-49.681,49.682-49.681v-62.801h-15L241,273.432L241,273.432z"/>
<polygon style="fill:#6283A3;" points="512,0 256,0 235.984,63.785 256,127.571 512,127.571 "/>
<rect style="fill:#9ABADB;" width="256" height="127.57"/>
<rect x="47.839" y="48.786" style="fill:#FF0099;" width="31.893" height="30"/>
<rect x="111.62" y="48.786" style="fill:#FFED94;" width="31.893" height="30"/>
<rect x="175.41" y="48.786" style="fill:#0093C4;" width="31.893" height="30"/>
<g>
</g>
<g>
</g>
<g>
</g>
<g>
</g>
<g>
</g>
<g>
</g>
<g>
</g>
<g>
</g>
<g>
</g>
<g>
</g>
<g>
</g>
<g>
</g>
<g>
</g>
<g>
</g>
<g>
</g>
</svg>
