<?xml version="1.0" encoding="iso-8859-1"?>
<!-- Generator: Adobe Illustrator 19.0.0, SVG Export Plug-In . SVG Version: 6.00 Build 0)  -->
<svg version="1.1" id="Capa_1" xmlns="http://www.w3.org/2000/svg" xmlns:xlink="http://www.w3.org/1999/xlink" x="0px" y="0px"
	 viewBox="0 0 512 512" style="enable-background:new 0 0 512 512;" xml:space="preserve">
<path style="fill:#D1E8FF;" d="M454.406,223.609c0.027-0.913,0.069-1.822,0.069-2.742c0-50.541-40.971-91.512-91.512-91.512
	c-11.967,0-23.386,2.321-33.863,6.499c-6.738-43.241-34.807-79.402-73.1-97.431l-34.841,177.216L256,339.538h198.026
	c32.018,0,57.974-25.956,57.974-57.974C512,249.674,486.247,223.816,454.406,223.609z"/>
<path style="fill:#F5F5FF;" d="M200.74,26.092c-71.755,0-129.924,58.169-129.924,129.924c0,4.185,0.217,8.317,0.604,12.4
	C30.858,175.432,0,210.767,0,253.333c0,47.61,38.596,86.206,86.206,86.206H256V38.423C239.229,30.527,220.506,26.092,200.74,26.092z
	"/>
<polygon style="fill:#FF68A5;" points="256,485.908 276.016,354.11 256,194.214 215.565,194.214 215.565,374.345 176.061,374.345 
	"/>
<polygon style="fill:#FF0099;" points="335.939,374.345 296.435,374.345 296.435,194.214 256,194.214 256,485.908 "/>
<g>
</g>
<g>
</g>
<g>
</g>
<g>
</g>
<g>
</g>
<g>
</g>
<g>
</g>
<g>
</g>
<g>
</g>
<g>
</g>
<g>
</g>
<g>
</g>
<g>
</g>
<g>
</g>
<g>
</g>
</svg>
