<?xml version="1.0" encoding="iso-8859-1"?>
<!-- Generator: Adobe Illustrator 19.0.0, SVG Export Plug-In . SVG Version: 6.00 Build 0)  -->
<svg version="1.1" id="Capa_1" xmlns="http://www.w3.org/2000/svg" xmlns:xlink="http://www.w3.org/1999/xlink" x="0px" y="0px"
	 viewBox="0 0 512 512" style="enable-background:new 0 0 512 512;" xml:space="preserve">
<path style="fill:#D1E8FF;" d="M454.406,238.621c0.027-0.913,0.069-1.822,0.069-2.742c0-50.541-40.971-91.512-91.512-91.512
	c-11.967,0-23.386,2.322-33.863,6.499c-6.738-43.241-34.807-79.402-73.1-97.431l-34.841,177.216L256,354.55h198.026
	c32.018,0,57.974-25.956,57.974-57.974C512,264.686,486.247,238.828,454.406,238.621z"/>
<path style="fill:#F5F5FF;" d="M200.74,41.104c-71.755,0-129.924,58.169-129.924,129.924c0,4.185,0.217,8.317,0.604,12.4
	C30.858,190.444,0,225.779,0,268.345c0,47.61,38.596,86.206,86.206,86.206H256V53.435C239.229,45.539,220.506,41.104,200.74,41.104z
	"/>
<polygon style="fill:#FF0099;" points="256,179.202 235.984,311 256,470.896 296.435,470.896 296.435,290.765 335.939,290.765 "/>
<polygon style="fill:#FF68A5;" points="176.061,290.765 215.565,290.765 215.565,470.896 256,470.896 256,179.202 "/>
<g>
</g>
<g>
</g>
<g>
</g>
<g>
</g>
<g>
</g>
<g>
</g>
<g>
</g>
<g>
</g>
<g>
</g>
<g>
</g>
<g>
</g>
<g>
</g>
<g>
</g>
<g>
</g>
<g>
</g>
</svg>
