<?xml version="1.0" encoding="iso-8859-1"?>
<!-- Generator: Adobe Illustrator 19.0.0, SVG Export Plug-In . SVG Version: 6.00 Build 0)  -->
<svg version="1.1" id="Capa_1" xmlns="http://www.w3.org/2000/svg" xmlns:xlink="http://www.w3.org/1999/xlink" x="0px" y="0px"
	 viewBox="0 0 512 512" style="enable-background:new 0 0 512 512;" xml:space="preserve">
<path style="fill:#D1E8FF;" d="M454.406,246.597c0.027-0.913,0.069-1.822,0.069-2.742c0-50.541-40.971-91.512-91.512-91.512
	c-11.967,0-23.386,2.322-33.863,6.499c-6.738-43.241-34.807-79.402-73.1-97.431l-34.841,177.216L256,362.526h198.026
	c32.018,0,57.974-25.956,57.974-57.974C512,272.661,486.247,246.803,454.406,246.597z"/>
<path style="fill:#F5F5FF;" d="M200.74,49.079c-71.755,0-129.924,58.169-129.924,129.924c0,4.185,0.217,8.317,0.604,12.4
	C30.858,198.419,0,233.755,0,276.32c0,47.61,38.596,86.206,86.206,86.206H256V61.411C239.229,53.515,220.506,49.079,200.74,49.079z"
	/>
<path style="fill:#9ABADB;" d="M256,222.725l-10.008,16.132L256,252.725c18.518,0,33.582,15.065,33.582,33.583v70.999h30v-70.999
	C319.582,251.248,291.06,222.725,256,222.725z"/>
<path style="fill:#D1E8FF;" d="M192.417,286.308v70.999h30v-70.999c0-18.518,15.065-33.583,33.583-33.583v-30
	C220.94,222.725,192.417,251.248,192.417,286.308z"/>
<polygon style="fill:#FF8E00;" points="343.678,337.291 256,337.291 235.984,400.106 256,462.921 343.678,462.921 "/>
<rect x="168.32" y="337.29" style="fill:#FFCD00;" width="87.68" height="125.63"/>
<g>
</g>
<g>
</g>
<g>
</g>
<g>
</g>
<g>
</g>
<g>
</g>
<g>
</g>
<g>
</g>
<g>
</g>
<g>
</g>
<g>
</g>
<g>
</g>
<g>
</g>
<g>
</g>
<g>
</g>
</svg>
