<?xml version="1.0" encoding="iso-8859-1"?>
<!-- Generator: Adobe Illustrator 19.0.0, SVG Export Plug-In . SVG Version: 6.00 Build 0)  -->
<svg version="1.1" id="Capa_1" xmlns="http://www.w3.org/2000/svg" xmlns:xlink="http://www.w3.org/1999/xlink" x="0px" y="0px"
	 viewBox="0 0 512 512" style="enable-background:new 0 0 512 512;" xml:space="preserve">
<path style="fill:#D1E8FF;" d="M454.406,236.84c0.027-0.913,0.069-1.822,0.069-2.742c0-50.541-40.971-91.512-91.512-91.512
	c-11.967,0-23.386,2.322-33.863,6.499c-6.738-43.241-34.807-79.402-73.1-97.431L221.159,228.87L256,352.769h198.026
	c32.018,0,57.974-25.956,57.974-57.974C512,262.905,486.247,237.047,454.406,236.84z"/>
<path style="fill:#F5F5FF;" d="M200.74,39.323c-71.755,0-129.924,58.169-129.924,129.924c0,4.185,0.217,8.317,0.604,12.4
	C30.858,188.663,0,223.998,0,266.564c0,47.61,38.596,86.206,86.206,86.206H256V51.654C239.229,43.758,220.506,39.323,200.74,39.323z
	"/>
<path style="fill:#00C7FF;" d="M248.564,202.533l-20.016,135.072l20.016,135.072c74.479,0,135.072-60.593,135.072-135.072
	S323.043,202.533,248.564,202.533z"/>
<path style="fill:#04F6FF;" d="M113.492,337.605c0,74.479,60.593,135.072,135.072,135.072V202.533
	C174.085,202.533,113.492,263.126,113.492,337.605z"/>
<path style="fill:#D1E8FF;" d="M339.582,352.605v-30h-26.814c-1.659-7.1-4.459-13.762-8.211-19.78l18.973-18.973l-21.213-21.213
	l-18.973,18.973c-6.018-3.752-12.68-6.553-19.78-8.211v-26.813h-15l-10.008,40.375l10.008,14.697
	c19.82,0,35.945,16.125,35.945,35.946s-16.125,35.946-35.945,35.946l-10.008,13.911l10.008,41.16h15V401.81
	c7.1-1.659,13.763-4.46,19.78-8.211l18.973,18.973l21.213-21.213l-18.973-18.973c3.751-6.017,6.552-12.68,8.211-19.78h26.814
	V352.605z"/>
<path style="fill:#F5F5FF;" d="M212.619,337.605c0-19.821,16.125-35.946,35.945-35.946v-55.072h-15V273.4
	c-7.1,1.659-13.763,4.46-19.78,8.211l-18.973-18.973l-21.213,21.213l18.973,18.973c-3.751,6.017-6.552,12.68-8.211,19.78h-26.814v30
	h26.814c1.659,7.1,4.459,13.762,8.211,19.78l-18.973,18.973l21.213,21.213l18.973-18.973c6.018,3.752,12.68,6.553,19.78,8.211
	v26.813h15V373.55C228.744,373.551,212.619,357.426,212.619,337.605z"/>
<g>
</g>
<g>
</g>
<g>
</g>
<g>
</g>
<g>
</g>
<g>
</g>
<g>
</g>
<g>
</g>
<g>
</g>
<g>
</g>
<g>
</g>
<g>
</g>
<g>
</g>
<g>
</g>
<g>
</g>
</svg>
